<?xml version="1.0" encoding="utf-8" standalone="no"?>
<!DOCTYPE svg PUBLIC "-//W3C//DTD SVG 1.1//EN"
  "http://www.w3.org/Graphics/SVG/1.1/DTD/svg11.dtd">
<!-- Created with matplotlib (https://matplotlib.org/) -->
<svg height="432pt" version="1.1" viewBox="0 0 576 432" width="576pt" xmlns="http://www.w3.org/2000/svg" xmlns:xlink="http://www.w3.org/1999/xlink">
 <defs>
  <style type="text/css">
*{stroke-linecap:butt;stroke-linejoin:round;}
  </style>
 </defs>
 <g id="figure_1">
  <g id="patch_1">
   <path d="M 0 432 
L 576 432 
L 576 0 
L 0 0 
z
" style="fill:#ffffff;"/>
  </g>
  <g id="axes_1">
   <g id="patch_2">
    <path d="M 56.175 390.2 
L 561.7 390.2 
L 561.7 14.3 
L 56.175 14.3 
z
" style="fill:#ffffff;"/>
   </g>
   <g id="Quiver_1">
    <path clip-path="url(#pd344532cd2)" d="M 188.661878 378.671412 
L 189.193664 377.07244 
L 185.463935 377.60784 
L 195.578707 363.213483 
L 195.057764 380.798555 
L 192.391607 378.136012 
L 191.859821 379.734983 
L 188.661878 378.671412 
" style="fill:#ff0000;fill-opacity:0.5;"/>
    <path clip-path="url(#pd344532cd2)" d="M 165.846163 362.3346 
L 166.362757 360.730656 
L 162.638275 361.301412 
L 172.616047 346.811753 
L 172.261939 364.400975 
L 169.570645 361.763844 
L 169.054051 363.367788 
L 165.846163 362.3346 
" style="fill:#ff0000;fill-opacity:0.5;"/>
    <path clip-path="url(#pd344532cd2)" d="M 142.850198 345.895709 
L 143.39019 344.29949 
L 139.657761 344.815726 
L 149.846335 330.473512 
L 149.235074 348.055676 
L 146.582628 345.379474 
L 146.042636 346.975693 
L 142.850198 345.895709 
" style="fill:#ff0000;fill-opacity:0.5;"/>
    <path clip-path="url(#pd344532cd2)" d="M 119.93505 329.502346 
L 120.481147 327.908205 
L 116.746769 328.410152 
L 126.990159 314.107037 
L 126.311613 331.686733 
L 123.669428 329.000399 
L 123.123332 330.594539 
L 119.93505 329.502346 
" style="fill:#ff0000;fill-opacity:0.5;"/>
    <path clip-path="url(#pd344532cd2)" d="M 95.471809 311.946143 
L 96.366446 310.518162 
L 92.615846 310.15687 
L 105.846158 298.560966 
L 101.183734 315.52469 
L 99.222408 312.307436 
L 98.327772 313.735417 
L 95.471809 311.946143 
" style="fill:#ff0000;fill-opacity:0.5;"/>
    <path clip-path="url(#pd344532cd2)" d="M 207.937084 375.211582 
L 208.061984 373.531134 
L 204.576188 374.961783 
L 210.866527 358.532 
L 214.658877 375.71118 
L 211.42288 373.780933 
L 211.29798 375.461381 
L 207.937084 375.211582 
" style="fill:#ff0000;fill-opacity:0.5;"/>
    <path clip-path="url(#pd344532cd2)" d="M 183.129516 358.038661 
L 183.65443 356.437421 
L 179.927035 356.988832 
L 189.979901 342.551172 
L 189.534477 360.138319 
L 186.856911 357.48725 
L 186.331997 359.08849 
L 183.129516 358.038661 
" style="fill:#ff0000;fill-opacity:0.5;"/>
    <path clip-path="url(#pd344532cd2)" d="M 160.773664 341.937723 
L 161.185879 340.303837 
L 157.505891 341.113292 
L 166.529705 326.011076 
L 167.309209 343.586585 
L 164.453652 341.128267 
L 164.041436 342.762154 
L 160.773664 341.937723 
" style="fill:#ff0000;fill-opacity:0.5;"/>
    <path clip-path="url(#pd344532cd2)" d="M 135.993749 324.330464 
L 136.817367 322.860376 
L 133.053573 322.683228 
L 145.700015 310.453199 
L 141.874102 327.624935 
L 139.757544 324.507611 
L 138.933926 325.9777 
L 135.993749 324.330464 
" style="fill:#ff0000;fill-opacity:0.5;"/>
    <path clip-path="url(#pd344532cd2)" d="M 112.275094 307.137208 
L 113.290103 305.79212 
L 109.584917 305.107191 
L 123.770268 294.70133 
L 117.655449 311.197242 
L 115.98028 307.822137 
L 114.965271 309.167225 
L 112.275094 307.137208 
" style="fill:#ff0000;fill-opacity:0.5;"/>
    <path clip-path="url(#pd344532cd2)" d="M 223.303276 370.121441 
L 223.835727 368.52269 
L 220.105776 369.056539 
L 230.226536 354.66639 
L 229.698277 372.251244 
L 227.033227 369.587592 
L 226.500777 371.186342 
L 223.303276 370.121441 
" style="fill:#ff0000;fill-opacity:0.5;"/>
    <path clip-path="url(#pd344532cd2)" d="M 200.884494 353.992986 
L 201.317406 352.364461 
L 197.627445 353.127161 
L 206.842141 338.14065 
L 207.398593 355.724635 
L 204.574456 353.230285 
L 204.141544 354.85881 
L 200.884494 353.992986 
" style="fill:#ff0000;fill-opacity:0.5;"/>
    <path clip-path="url(#pd344532cd2)" d="M 178.760847 337.946685 
L 179.034304 336.283938 
L 175.435353 337.399771 
L 183.158164 321.592673 
L 185.411835 339.040513 
L 182.359798 336.830852 
L 182.086341 338.493599 
L 178.760847 337.946685 
" style="fill:#ff0000;fill-opacity:0.5;"/>
    <path clip-path="url(#pd344532cd2)" d="M 154.033406 320.607869 
L 154.697849 319.059315 
L 150.936297 319.278982 
L 162.226396 305.786769 
L 160.227623 323.265643 
L 157.794958 320.388202 
L 157.130514 321.936756 
L 154.033406 320.607869 
" style="fill:#ff0000;fill-opacity:0.5;"/>
    <path clip-path="url(#pd344532cd2)" d="M 131.672969 304.565663 
L 132.223336 302.972992 
L 128.487627 303.464928 
L 138.769313 289.189318 
L 138.043654 306.767132 
L 135.408679 304.073726 
L 134.858312 305.666397 
L 131.672969 304.565663 
" style="fill:#ff0000;fill-opacity:0.5;"/>
    <path clip-path="url(#pd344532cd2)" d="M 240.514507 365.782834 
L 241.070789 364.192219 
L 237.333277 364.67027 
L 247.667943 350.432966 
L 246.876967 368.007963 
L 244.252019 365.304783 
L 243.695737 366.895399 
L 240.514507 365.782834 
" style="fill:#ff0000;fill-opacity:0.5;"/>
    <path clip-path="url(#pd344532cd2)" d="M 218.640422 349.917494 
L 218.982296 348.267456 
L 215.340344 349.233746 
L 223.709202 333.758981 
L 225.240577 351.284991 
L 222.282374 348.951204 
L 221.940499 350.601243 
L 218.640422 349.917494 
" style="fill:#ff0000;fill-opacity:0.5;"/>
    <path clip-path="url(#pd344532cd2)" d="M 196.13405 333.691603 
L 196.396977 332.027158 
L 192.805161 333.165748 
L 200.427766 317.310086 
L 202.791828 334.743311 
L 199.725866 332.553013 
L 199.462939 334.217457 
L 196.13405 333.691603 
" style="fill:#ff0000;fill-opacity:0.5;"/>
    <path clip-path="url(#pd344532cd2)" d="M 170.403421 315.573647 
L 171.280223 314.134646 
L 167.525418 313.820045 
L 180.610436 302.060434 
L 176.159427 319.080853 
L 174.158226 315.888248 
L 173.281424 317.32725 
L 170.403421 315.573647 
" style="fill:#ff0000;fill-opacity:0.5;"/>
    <path clip-path="url(#pd344532cd2)" d="M 148.341471 299.867464 
L 149.033871 298.331206 
L 145.268956 298.482664 
L 156.801727 285.197285 
L 154.486503 302.637063 
L 152.106387 299.716006 
L 151.413987 301.252264 
L 148.341471 299.867464 
" style="fill:#ff0000;fill-opacity:0.5;"/>
    <path clip-path="url(#pd344532cd2)" d="M 259.615973 362.303674 
L 259.799524 360.628618 
L 256.26586 361.936573 
L 263.126538 345.736658 
L 266.3162 363.037878 
L 263.149637 360.995719 
L 262.966086 362.670776 
L 259.615973 362.303674 
" style="fill:#ff0000;fill-opacity:0.5;"/>
    <path clip-path="url(#pd344532cd2)" d="M 234.87479 345.086859 
L 235.447277 343.502005 
L 231.705081 343.941884 
L 242.184522 329.810803 
L 241.214207 347.376811 
L 238.616986 344.646981 
L 238.044499 346.231835 
L 234.87479 345.086859 
" style="fill:#ff0000;fill-opacity:0.5;"/>
    <path clip-path="url(#pd344532cd2)" d="M 214.245941 329.666848 
L 214.347424 327.984824 
L 210.881891 329.463882 
L 216.942799 312.948085 
L 220.974039 330.072782 
L 217.711473 328.18779 
L 217.60999 329.869815 
L 214.245941 329.666848 
" style="fill:#ff0000;fill-opacity:0.5;"/>
    <path clip-path="url(#pd344532cd2)" d="M 189.564937 312.594287 
L 190.038236 310.977038 
L 186.33044 311.647689 
L 195.915176 296.895097 
L 196.033933 314.487483 
L 193.272734 311.923636 
L 192.799435 313.540885 
L 189.564937 312.594287 
" style="fill:#ff0000;fill-opacity:0.5;"/>
    <path clip-path="url(#pd344532cd2)" d="M 164.955976 295.028545 
L 165.806205 293.573685 
L 162.046257 293.328087 
L 174.913124 281.330176 
L 170.775415 298.42946 
L 168.715924 295.274143 
L 167.865696 296.729002 
L 164.955976 295.028545 
" style="fill:#ff0000;fill-opacity:0.5;"/>
    <path clip-path="url(#pd344532cd2)" d="M 275.768514 357.562516 
L 276.194973 355.932289 
L 272.508061 356.709598 
L 281.66333 341.68671 
L 282.28942 359.268352 
L 279.455426 356.785207 
L 279.028967 358.415434 
L 275.768514 357.562516 
" style="fill:#ff0000;fill-opacity:0.5;"/>
    <path clip-path="url(#pd344532cd2)" d="M 253.78072 341.562016 
L 254.019837 339.893985 
L 250.444657 341.083783 
L 257.839917 325.120818 
L 260.452846 342.518483 
L 257.3559 340.372218 
L 257.116783 342.04025 
L 253.78072 341.562016 
" style="fill:#ff0000;fill-opacity:0.5;"/>
    <path clip-path="url(#pd344532cd2)" d="M 230.426075 325.004202 
L 230.762141 323.35297 
L 227.123612 324.332071 
L 235.43796 308.827951 
L 237.031002 326.348463 
L 234.064604 324.025101 
L 233.728539 325.676332 
L 230.426075 325.004202 
" style="fill:#ff0000;fill-opacity:0.5;"/>
    <path clip-path="url(#pd344532cd2)" d="M 207.559161 308.635629 
L 207.891102 306.983563 
L 204.255029 307.971746 
L 212.530639 292.446914 
L 214.167423 309.963394 
L 211.195233 307.647446 
L 210.863292 309.299511 
L 207.559161 308.635629 
" style="fill:#ff0000;fill-opacity:0.5;"/>
    <path clip-path="url(#pd344532cd2)" d="M 181.601432 290.082507 
L 182.607658 288.730836 
L 178.898089 288.070056 
L 193.015359 277.572018 
L 187.008118 294.10741 
L 185.311001 290.743287 
L 184.304775 292.094959 
L 181.601432 290.082507 
" style="fill:#ff0000;fill-opacity:0.5;"/>
    <path clip-path="url(#pd344532cd2)" d="M 292.923541 353.204701 
L 293.385378 351.584142 
L 289.682423 352.281027 
L 299.162474 337.460947 
L 299.405778 355.052051 
L 296.626497 352.507817 
L 296.164659 354.128376 
L 292.923541 353.204701 
" style="fill:#ff0000;fill-opacity:0.5;"/>
    <path clip-path="url(#pd344532cd2)" d="M 271.152963 337.305415 
L 271.381793 335.635941 
L 267.814015 336.847755 
L 275.110735 320.839507 
L 277.830858 338.220734 
L 274.72074 336.093601 
L 274.491911 337.763075 
L 271.152963 337.305415 
" style="fill:#ff0000;fill-opacity:0.5;"/>
    <path clip-path="url(#pd344532cd2)" d="M 246.16735 319.859417 
L 246.840937 318.314818 
L 243.078152 318.512243 
L 254.447821 305.087014 
L 252.345746 322.553766 
L 249.930135 319.661992 
L 249.256548 321.206592 
L 246.16735 319.859417 
" style="fill:#ff0000;fill-opacity:0.5;"/>
    <path clip-path="url(#pd344532cd2)" d="M 225.734916 304.666251 
L 225.891002 302.988412 
L 222.379238 304.354079 
L 228.973613 288.043948 
L 232.446271 305.290594 
L 229.246679 303.300584 
L 229.090593 304.978422 
L 225.734916 304.666251 
" style="fill:#ff0000;fill-opacity:0.5;"/>
    <path clip-path="url(#pd344532cd2)" d="M 200.075731 286.872901 
L 200.819467 285.360829 
L 197.051586 285.385429 
L 209.025163 272.495914 
L 206.12402 289.847845 
L 203.843611 286.848301 
L 203.099875 288.360373 
L 200.075731 286.872901 
" style="fill:#ff0000;fill-opacity:0.5;"/>
    <path clip-path="url(#pd344532cd2)" d="M 313.215096 349.828068 
L 313.071395 348.149123 
L 309.857206 350.115469 
L 313.457036 332.894919 
L 319.930875 349.253266 
L 316.429285 347.861722 
L 316.572986 349.540667 
L 313.215096 349.828068 
" style="fill:#ff0000;fill-opacity:0.5;"/>
    <path clip-path="url(#pd344532cd2)" d="M 288.924951 333.173478 
L 289.061825 331.493963 
L 285.56592 332.899729 
L 291.973209 316.5152 
L 295.643011 333.720975 
L 292.420855 331.767711 
L 292.283981 333.447227 
L 288.924951 333.173478 
" style="fill:#ff0000;fill-opacity:0.5;"/>
    <path clip-path="url(#pd344532cd2)" d="M 264.864546 316.366146 
L 265.243689 314.72427 
L 261.580795 315.607861 
L 270.297851 300.32653 
L 271.43205 317.882718 
L 268.527441 315.482556 
L 268.148298 317.124432 
L 264.864546 316.366146 
" style="fill:#ff0000;fill-opacity:0.5;"/>
    <path clip-path="url(#pd344532cd2)" d="M 244.067924 300.628509 
L 244.020543 298.944092 
L 240.69909 300.723272 
L 245.27853 283.736958 
L 250.805592 300.438985 
L 247.389377 298.84933 
L 247.436758 300.533747 
L 244.067924 300.628509 
" style="fill:#ff0000;fill-opacity:0.5;"/>
    <path clip-path="url(#pd344532cd2)" d="M 218.376139 283.248272 
L 218.906788 281.648923 
L 215.177441 282.186973 
L 225.281981 267.785431 
L 224.773535 285.370869 
L 222.105486 282.710221 
L 221.574837 284.30957 
L 218.376139 283.248272 
" style="fill:#ff0000;fill-opacity:0.5;"/>
    <path clip-path="url(#pd344532cd2)" d="M 329.297241 345.321248 
L 329.400973 343.639361 
L 325.933466 345.113784 
L 332.016452 328.606106 
L 336.024791 345.736178 
L 332.764748 343.846826 
L 332.661016 345.528713 
L 329.297241 345.321248 
" style="fill:#ff0000;fill-opacity:0.5;"/>
    <path clip-path="url(#pd344532cd2)" d="M 305.960564 328.811918 
L 306.155925 327.138197 
L 302.613123 328.421196 
L 309.587894 312.270075 
L 312.655445 329.593362 
L 309.503365 327.528919 
L 309.308004 329.20264 
L 305.960564 328.811918 
" style="fill:#ff0000;fill-opacity:0.5;"/>
    <path clip-path="url(#pd344532cd2)" d="M 284.611681 312.78173 
L 284.497974 311.100487 
L 281.249196 313.009144 
L 285.155852 295.855597 
L 291.336651 312.326901 
L 287.860459 310.873073 
L 287.974166 312.554316 
L 284.611681 312.78173 
" style="fill:#ff0000;fill-opacity:0.5;"/>
    <path clip-path="url(#pd344532cd2)" d="M 260.159168 296.049053 
L 260.360264 294.376012 
L 256.813086 295.646862 
L 263.843164 279.519738 
L 266.851333 296.853435 
L 263.706346 294.778203 
L 263.50525 296.451244 
L 260.159168 296.049053 
" style="fill:#ff0000;fill-opacity:0.5;"/>
    <path clip-path="url(#pd344532cd2)" d="M 235.208697 278.67312 
L 235.845097 277.112831 
L 232.08812 277.40032 
L 243.132986 263.706633 
L 241.449852 281.21872 
L 238.965675 278.385631 
L 238.329275 279.94592 
L 235.208697 278.67312 
" style="fill:#ff0000;fill-opacity:0.5;"/>
    <path clip-path="url(#pd344532cd2)" d="M 347.238335 341.186878 
L 347.217685 339.501921 
L 343.868421 341.228178 
L 348.716791 324.31666 
L 353.978162 341.104278 
L 350.587598 339.460621 
L 350.608248 341.145578 
L 347.238335 341.186878 
" style="fill:#ff0000;fill-opacity:0.5;"/>
    <path clip-path="url(#pd344532cd2)" d="M 325.626109 324.951355 
L 325.354932 323.288235 
L 322.299869 325.493711 
L 324.577451 308.048977 
L 332.27859 323.866644 
L 328.681172 322.74588 
L 328.952349 324.409 
L 325.626109 324.951355 
" style="fill:#ff0000;fill-opacity:0.5;"/>
    <path clip-path="url(#pd344532cd2)" d="M 301.060479 308.347275 
L 301.120911 306.663276 
L 297.69248 308.226411 
L 303.3488 291.567714 
L 307.796476 308.589004 
L 304.48891 306.78414 
L 304.428478 308.468139 
L 301.060479 308.347275 
" style="fill:#ff0000;fill-opacity:0.5;"/>
    <path clip-path="url(#pd344532cd2)" d="M 278.226869 291.982844 
L 278.276613 290.298495 
L 274.858171 291.883356 
L 280.408659 275.189099 
L 284.964265 292.181821 
L 281.645311 290.397984 
L 281.595567 292.082333 
L 278.226869 291.982844 
" style="fill:#ff0000;fill-opacity:0.5;"/>
    <path clip-path="url(#pd344532cd2)" d="M 254.983623 275.515572 
L 255.10541 273.834895 
L 251.622269 275.271997 
L 257.882176 258.830594 
L 261.706329 276.002723 
L 258.466763 274.078471 
L 258.344976 275.759147 
L 254.983623 275.515572 
" style="fill:#ff0000;fill-opacity:0.5;"/>
   </g>
   <g id="Quiver_2">
    <path clip-path="url(#pd344532cd2)" d="M 325.518085 155.599049 
L 325.064378 157.221904 
L 328.763794 156.506463 
L 319.358162 171.373885 
L 319.026668 153.784222 
L 321.81867 156.31449 
L 322.272377 154.691636 
L 325.518085 155.599049 
" style="fill:#0000ff;fill-opacity:0.5;"/>
    <path clip-path="url(#pd344532cd2)" d="M 311.937816 146.119541 
L 311.665202 147.782427 
L 315.263587 146.664768 
L 307.548795 162.475781 
L 305.286274 145.029087 
L 308.339432 147.2372 
L 308.612045 145.574314 
L 311.937816 146.119541 
" style="fill:#0000ff;fill-opacity:0.5;"/>
    <path clip-path="url(#pd344532cd2)" d="M 299.133186 136.988064 
L 298.879119 138.653884 
L 302.464826 137.496199 
L 294.926691 153.392194 
L 292.469907 135.971794 
L 295.547479 138.145749 
L 295.801547 136.479929 
L 299.133186 136.988064 
" style="fill:#0000ff;fill-opacity:0.5;"/>
    <path clip-path="url(#pd344532cd2)" d="M 284.683587 127.456968 
L 284.779775 129.139304 
L 288.048258 127.264591 
L 283.963139 144.376515 
L 277.954244 127.841724 
L 281.415104 129.331682 
L 281.318915 127.649346 
L 284.683587 127.456968 
" style="fill:#0000ff;fill-opacity:0.5;"/>
    <path clip-path="url(#pd344532cd2)" d="M 272.239835 118.401414 
L 272.28225 120.085964 
L 275.608934 118.316584 
L 270.979437 135.289324 
L 265.501637 118.571075 
L 268.913151 120.170794 
L 268.870736 118.486245 
L 272.239835 118.401414 
" style="fill:#0000ff;fill-opacity:0.5;"/>
    <path clip-path="url(#pd344532cd2)" d="M 260.927428 109.671275 
L 260.685987 111.338971 
L 264.262821 110.154156 
L 256.845323 126.106801 
L 254.256641 108.705512 
L 257.350594 110.85609 
L 257.592034 109.188393 
L 260.927428 109.671275 
" style="fill:#0000ff;fill-opacity:0.5;"/>
    <path clip-path="url(#pd344532cd2)" d="M 247.767325 100.428454 
L 247.617073 102.106825 
L 251.124068 100.728958 
L 244.586433 117.061914 
L 241.05384 99.827445 
L 244.260331 101.806321 
L 244.410583 100.127949 
L 247.767325 100.428454 
" style="fill:#0000ff;fill-opacity:0.5;"/>
    <path clip-path="url(#pd344532cd2)" d="M 233.108644 90.993269 
L 233.345167 92.661671 
L 236.445446 90.520223 
L 233.805476 107.913805 
L 226.435039 91.939363 
L 230.008365 93.134717 
L 229.771842 91.466316 
L 233.108644 90.993269 
" style="fill:#0000ff;fill-opacity:0.5;"/>
    <path clip-path="url(#pd344532cd2)" d="M 223.008832 82.460291 
L 222.720725 84.120562 
L 226.329375 83.036505 
L 218.46749 98.774895 
L 216.367748 81.307862 
L 219.400183 83.544348 
L 219.68829 81.884077 
L 223.008832 82.460291 
" style="fill:#0000ff;fill-opacity:0.5;"/>
    <path clip-path="url(#pd344532cd2)" d="M 210.48428 73.438285 
L 210.156647 75.091211 
L 213.790131 74.09355 
L 205.555029 89.639908 
L 203.872578 72.127755 
L 206.850796 74.435945 
L 207.178429 72.78302 
L 210.48428 73.438285 
" style="fill:#0000ff;fill-opacity:0.5;"/>
    <path clip-path="url(#pd344532cd2)" d="M 337.099337 153.901011 
L 336.358863 155.414683 
L 340.126682 155.381959 
L 328.180921 168.297258 
L 331.044649 150.939113 
L 333.331519 153.933734 
L 334.071993 152.420062 
L 337.099337 153.901011 
" style="fill:#0000ff;fill-opacity:0.5;"/>
    <path clip-path="url(#pd344532cd2)" d="M 322.661724 143.780526 
L 322.29187 145.424519 
L 325.94971 144.520235 
L 317.319187 159.850604 
L 316.085751 142.301109 
L 319.003883 144.684811 
L 319.373738 143.040817 
L 322.661724 143.780526 
" style="fill:#0000ff;fill-opacity:0.5;"/>
    <path clip-path="url(#pd344532cd2)" d="M 308.095803 134.098494 
L 308.10438 135.783556 
L 311.465926 134.081341 
L 306.496509 150.957686 
L 301.355557 134.132801 
L 304.734257 135.800709 
L 304.72568 134.115648 
L 308.095803 134.098494 
" style="fill:#0000ff;fill-opacity:0.5;"/>
    <path clip-path="url(#pd344532cd2)" d="M 297.565992 125.741285 
L 297.12587 127.367876 
L 300.819174 126.621529 
L 291.538182 141.567075 
L 291.059627 123.980798 
L 293.872688 126.487633 
L 294.312809 124.861042 
L 297.565992 125.741285 
" style="fill:#0000ff;fill-opacity:0.5;"/>
    <path clip-path="url(#pd344532cd2)" d="M 283.773061 116.195247 
L 283.557488 117.866484 
L 287.115536 116.626393 
L 279.946091 132.692046 
L 277.088112 115.332953 
L 280.215013 117.435337 
L 280.430587 115.7641 
L 283.773061 116.195247 
" style="fill:#0000ff;fill-opacity:0.5;"/>
    <path clip-path="url(#pd344532cd2)" d="M 271.40076 107.22081 
L 271.114553 108.881409 
L 274.721959 107.793224 
L 266.878087 123.540599 
L 264.758362 106.07598 
L 267.793354 108.308994 
L 268.079561 106.648395 
L 271.40076 107.22081 
" style="fill:#0000ff;fill-opacity:0.5;"/>
    <path clip-path="url(#pd344532cd2)" d="M 258.869601 98.195823 
L 258.545254 99.849396 
L 262.176748 98.844518 
L 253.972551 114.407207 
L 252.255309 96.898432 
L 255.238107 99.200701 
L 255.562455 97.547127 
L 258.869601 98.195823 
" style="fill:#0000ff;fill-opacity:0.5;"/>
    <path clip-path="url(#pd344532cd2)" d="M 245.581786 88.884823 
L 245.375809 90.55727 
L 248.92668 89.296776 
L 241.849573 105.403318 
L 238.891997 88.060916 
L 242.030915 90.145317 
L 242.236892 88.472869 
L 245.581786 88.884823 
" style="fill:#0000ff;fill-opacity:0.5;"/>
    <path clip-path="url(#pd344532cd2)" d="M 232.636295 79.713729 
L 232.477477 81.391311 
L 235.99146 80.031365 
L 229.370531 96.330734 
L 225.925965 79.078456 
L 229.122312 81.073675 
L 229.28113 79.396093 
L 232.636295 79.713729 
" style="fill:#0000ff;fill-opacity:0.5;"/>
    <path clip-path="url(#pd344532cd2)" d="M 219.524739 70.506594 
L 219.446401 72.189855 
L 222.891262 70.66327 
L 217.058098 87.26087 
L 212.791693 70.193242 
L 216.079878 72.03318 
L 216.158216 70.349918 
L 219.524739 70.506594 
" style="fill:#0000ff;fill-opacity:0.5;"/>
    <path clip-path="url(#pd344532cd2)" d="M 345.749388 150.40083 
L 345.355152 152.039147 
L 349.026023 151.189302 
L 340.168708 166.389767 
L 339.196119 148.823885 
L 342.078517 151.250675 
L 342.472753 149.612357 
L 345.749388 150.40083 
" style="fill:#0000ff;fill-opacity:0.5;"/>
    <path clip-path="url(#pd344532cd2)" d="M 331.389953 140.735333 
L 331.333803 142.419481 
L 334.758248 140.847633 
L 329.144305 157.520659 
L 324.653363 140.510733 
L 327.965508 142.307181 
L 328.021658 140.623033 
L 331.389953 140.735333 
" style="fill:#0000ff;fill-opacity:0.5;"/>
    <path clip-path="url(#pd344532cd2)" d="M 319.281682 131.803202 
L 319.102495 133.478731 
L 322.63274 132.161574 
L 315.814291 148.379308 
L 312.579565 131.086457 
L 315.751437 133.120358 
L 315.930623 131.444829 
L 319.281682 131.803202 
" style="fill:#0000ff;fill-opacity:0.5;"/>
    <path clip-path="url(#pd344532cd2)" d="M 306.336009 122.636078 
L 306.203863 124.315972 
L 309.695796 122.900369 
L 303.334661 139.302872 
L 299.616433 122.107497 
L 302.844075 124.051681 
L 302.976221 122.371787 
L 306.336009 122.636078 
" style="fill:#0000ff;fill-opacity:0.5;"/>
    <path clip-path="url(#pd344532cd2)" d="M 291.99524 113.242645 
L 292.187128 114.916767 
L 295.343485 112.858871 
L 292.239989 130.175754 
L 285.298752 114.010193 
L 288.838883 115.300541 
L 288.646996 113.626419 
L 291.99524 113.242645 
" style="fill:#0000ff;fill-opacity:0.5;"/>
    <path clip-path="url(#pd344532cd2)" d="M 280.489902 104.332836 
L 280.441946 106.017237 
L 283.858703 104.428748 
L 278.325939 121.128888 
L 273.752299 104.141011 
L 277.073144 105.921324 
L 277.1211 104.236923 
L 280.489902 104.332836 
" style="fill:#0000ff;fill-opacity:0.5;"/>
    <path clip-path="url(#pd344532cd2)" d="M 268.077412 95.309845 
L 267.968418 96.9914 
L 271.440521 95.527834 
L 265.305914 112.016398 
L 261.351193 94.873868 
L 264.605308 96.773411 
L 264.714303 95.091857 
L 268.077412 95.309845 
" style="fill:#0000ff;fill-opacity:0.5;"/>
    <path clip-path="url(#pd344532cd2)" d="M 253.672236 85.934838 
L 253.898951 87.6046 
L 257.01176 85.481407 
L 254.269631 102.859176 
L 246.993187 86.841701 
L 250.559427 88.058032 
L 250.332711 86.38827 
L 253.672236 85.934838 
" style="fill:#0000ff;fill-opacity:0.5;"/>
    <path clip-path="url(#pd344532cd2)" d="M 240.79104 76.827795 
L 241.050087 78.492848 
L 244.121146 76.309703 
L 241.716449 93.73737 
L 234.130829 77.86398 
L 237.719981 79.01094 
L 237.460935 77.345888 
L 240.79104 76.827795 
" style="fill:#0000ff;fill-opacity:0.5;"/>
    <path clip-path="url(#pd344532cd2)" d="M 228.485944 67.757011 
L 228.665138 69.432539 
L 231.837001 67.398623 
L 228.602353 84.691488 
L 221.78383 68.473786 
L 225.314081 69.790926 
L 225.134887 68.115398 
L 228.485944 67.757011 
" style="fill:#0000ff;fill-opacity:0.5;"/>
    <path clip-path="url(#pd344532cd2)" d="M 358.620638 149.744028 
L 357.65151 151.122541 
L 361.377663 151.682284 
L 347.550846 162.560026 
L 353.106588 145.867517 
L 354.894485 149.184285 
L 355.863613 147.805772 
L 358.620638 149.744028 
" style="fill:#0000ff;fill-opacity:0.5;"/>
    <path clip-path="url(#pd344532cd2)" d="M 344.956891 139.786947 
L 344.203278 141.294121 
L 347.971239 141.294173 
L 335.913587 154.105074 
L 338.928195 136.772495 
L 341.18893 139.786895 
L 341.942543 138.279721 
L 344.956891 139.786947 
" style="fill:#0000ff;fill-opacity:0.5;"/>
    <path clip-path="url(#pd344532cd2)" d="M 329.834403 129.371309 
L 329.594469 131.039223 
L 333.170232 129.851177 
L 325.767146 145.810515 
L 323.162747 128.411571 
L 326.258641 130.559354 
L 326.498575 128.89144 
L 329.834403 129.371309 
" style="fill:#0000ff;fill-opacity:0.5;"/>
    <path clip-path="url(#pd344532cd2)" d="M 319.02038 121.22499 
L 318.378292 122.782946 
L 322.136293 122.509165 
L 311.041545 136.162469 
L 312.788553 118.656638 
L 315.262378 121.498771 
L 315.904466 119.940814 
L 319.02038 121.22499 
" style="fill:#0000ff;fill-opacity:0.5;"/>
    <path clip-path="url(#pd344532cd2)" d="M 303.523575 110.914924 
L 303.463089 112.598922 
L 306.89157 111.035895 
L 301.234723 127.694413 
L 296.787585 110.672983 
L 300.095094 112.477951 
L 300.15558 110.793953 
L 303.523575 110.914924 
" style="fill:#0000ff;fill-opacity:0.5;"/>
    <path clip-path="url(#pd344532cd2)" d="M 290.644408 101.779314 
L 290.616961 103.464174 
L 294.014127 101.834207 
L 288.685084 118.600466 
L 283.904968 101.669529 
L 287.247242 103.409281 
L 287.274688 101.724421 
L 290.644408 101.779314 
" style="fill:#0000ff;fill-opacity:0.5;"/>
    <path clip-path="url(#pd344532cd2)" d="M 278.087853 92.716969 
L 278.028587 94.40101 
L 281.455934 92.835501 
L 275.811153 109.498111 
L 271.35169 92.479906 
L 274.660505 94.282478 
L 274.719771 92.598438 
L 278.087853 92.716969 
" style="fill:#0000ff;fill-opacity:0.5;"/>
    <path clip-path="url(#pd344532cd2)" d="M 266.478592 83.960664 
L 266.193564 85.621467 
L 269.800197 84.530721 
L 261.967507 100.28366 
L 259.835383 82.820551 
L 262.871959 85.05141 
L 263.156987 83.390608 
L 266.478592 83.960664 
" style="fill:#0000ff;fill-opacity:0.5;"/>
    <path clip-path="url(#pd344532cd2)" d="M 252.867256 74.572749 
L 252.765772 76.254774 
L 256.231305 74.775716 
L 250.170398 91.291512 
L 246.139157 74.166815 
L 249.401723 76.051807 
L 249.503206 74.369782 
L 252.867256 74.572749 
" style="fill:#0000ff;fill-opacity:0.5;"/>
    <path clip-path="url(#pd344532cd2)" d="M 240.414116 65.547895 
L 240.259484 67.225868 
L 243.770063 65.85716 
L 237.189818 82.172996 
L 233.702223 64.929365 
L 236.903537 66.916604 
L 237.058169 65.23863 
L 240.414116 65.547895 
" style="fill:#0000ff;fill-opacity:0.5;"/>
    <path clip-path="url(#pd344532cd2)" d="M 365.235225 144.941645 
L 365.053855 146.616939 
L 368.585813 145.304384 
L 361.746233 161.513218 
L 358.534048 144.216166 
L 361.703266 146.2542 
L 361.884636 144.578905 
L 365.235225 144.941645 
" style="fill:#0000ff;fill-opacity:0.5;"/>
    <path clip-path="url(#pd344532cd2)" d="M 355.386305 137.394254 
L 354.594149 138.881532 
L 358.36086 138.978566 
L 345.977469 151.474876 
L 349.437194 134.225631 
L 351.619593 137.29722 
L 352.411749 135.809943 
L 355.386305 137.394254 
" style="fill:#0000ff;fill-opacity:0.5;"/>
    <path clip-path="url(#pd344532cd2)" d="M 341.392664 127.427272 
L 340.879845 129.032427 
L 344.602974 128.45291 
L 334.659319 142.966003 
L 334.972044 125.375996 
L 337.669535 128.006789 
L 338.182354 126.401634 
L 341.392664 127.427272 
" style="fill:#0000ff;fill-opacity:0.5;"/>
    <path clip-path="url(#pd344532cd2)" d="M 326.167181 117.411299 
L 326.172476 119.096374 
L 329.537331 117.400709 
L 324.535055 134.267344 
L 319.426881 117.432478 
L 322.802326 119.106963 
L 322.797031 117.421888 
L 326.167181 117.411299 
" style="fill:#0000ff;fill-opacity:0.5;"/>
    <path clip-path="url(#pd344532cd2)" d="M 314.551857 108.606143 
L 314.334434 110.277141 
L 317.893852 109.040989 
L 310.706633 125.098698 
L 307.867866 107.736453 
L 310.992439 109.842296 
L 311.209862 108.171298 
L 314.551857 108.606143 
" style="fill:#0000ff;fill-opacity:0.5;"/>
    <path clip-path="url(#pd344532cd2)" d="M 301.467336 99.391809 
L 301.325471 101.07091 
L 304.825538 99.675538 
L 298.36959 116.040955 
L 294.750932 98.824351 
L 297.967269 100.787181 
L 298.109134 99.10808 
L 301.467336 99.391809 
" style="fill:#0000ff;fill-opacity:0.5;"/>
    <path clip-path="url(#pd344532cd2)" d="M 287.403007 90.01796 
L 287.53126 91.698155 
L 290.763398 89.761453 
L 287.005346 106.948168 
L 280.682225 90.530974 
L 284.170869 91.954662 
L 284.042616 90.274467 
L 287.403007 90.01796 
" style="fill:#0000ff;fill-opacity:0.5;"/>
    <path clip-path="url(#pd344532cd2)" d="M 274.762087 80.929029 
L 274.875767 82.610273 
L 278.124575 80.701668 
L 274.217647 97.855153 
L 268.037109 81.383751 
L 271.513278 82.837634 
L 271.399598 81.15639 
L 274.762087 80.929029 
" style="fill:#0000ff;fill-opacity:0.5;"/>
    <path clip-path="url(#pd344532cd2)" d="M 264.32418 72.455318 
L 263.975969 74.104031 
L 267.621606 73.151741 
L 259.193354 88.594237 
L 257.729328 71.062473 
L 260.678543 73.407608 
L 261.026754 71.758895 
L 264.32418 72.455318 
" style="fill:#0000ff;fill-opacity:0.5;"/>
    <path clip-path="url(#pd344532cd2)" d="M 249.051861 62.700544 
L 249.220724 64.377145 
L 252.405063 62.362817 
L 249.063894 79.635418 
L 242.345457 63.375998 
L 245.867522 64.714872 
L 245.698659 63.038271 
L 249.051861 62.700544 
" style="fill:#0000ff;fill-opacity:0.5;"/>
    <path clip-path="url(#pd344532cd2)" d="M 375.896062 142.549438 
L 375.631626 144.213644 
L 379.224473 143.07831 
L 371.5875 158.927057 
L 369.23924 141.491696 
L 372.303215 143.684772 
L 372.567651 142.020567 
L 375.896062 142.549438 
" style="fill:#0000ff;fill-opacity:0.5;"/>
    <path clip-path="url(#pd344532cd2)" d="M 365.688093 134.900852 
L 364.885811 136.382692 
L 368.651773 136.505415 
L 356.183436 148.916971 
L 359.760732 131.691725 
L 361.922131 134.778128 
L 362.724413 133.296288 
L 365.688093 134.900852 
" style="fill:#0000ff;fill-opacity:0.5;"/>
    <path clip-path="url(#pd344532cd2)" d="M 351.755651 124.956589 
L 351.220063 126.554291 
L 354.951055 126.027764 
L 344.802072 140.398021 
L 345.364843 122.814238 
L 348.024659 125.483115 
L 348.560247 123.885413 
L 351.755651 124.956589 
" style="fill:#0000ff;fill-opacity:0.5;"/>
    <path clip-path="url(#pd344532cd2)" d="M 337.730358 115.246833 
L 337.470301 116.911728 
L 341.060148 115.766947 
L 333.46489 131.635728 
L 331.070777 114.206604 
L 334.14051 116.391614 
L 334.400567 114.726718 
L 337.730358 115.246833 
" style="fill:#0000ff;fill-opacity:0.5;"/>
    <path clip-path="url(#pd344532cd2)" d="M 326.384069 106.793695 
L 325.836018 108.387165 
L 329.571008 107.889798 
L 319.310086 122.180341 
L 320.01019 104.60149 
L 322.649078 107.291062 
L 323.19713 105.697593 
L 326.384069 106.793695 
" style="fill:#0000ff;fill-opacity:0.5;"/>
    <path clip-path="url(#pd344532cd2)" d="M 312.472667 97.115646 
L 312.177024 98.774592 
L 315.790559 97.706931 
L 307.857296 113.409462 
L 305.836884 95.933076 
L 308.859133 98.183307 
L 309.154775 96.524361 
L 312.472667 97.115646 
" style="fill:#0000ff;fill-opacity:0.5;"/>
    <path clip-path="url(#pd344532cd2)" d="M 298.772491 87.69801 
L 298.678621 89.380477 
L 302.137424 87.88575 
L 296.151325 104.428807 
L 292.042624 87.32253 
L 295.313688 89.192737 
L 295.407557 87.51027 
L 298.772491 87.69801 
" style="fill:#0000ff;fill-opacity:0.5;"/>
    <path clip-path="url(#pd344532cd2)" d="M 288.283401 79.524696 
L 287.725929 81.114894 
L 291.463798 80.639641 
L 281.118479 94.869205 
L 281.922608 77.294806 
L 284.545532 79.999949 
L 285.103005 78.409751 
L 288.283401 79.524696 
" style="fill:#0000ff;fill-opacity:0.5;"/>
    <path clip-path="url(#pd344532cd2)" d="M 273.731096 69.611722 
L 273.558319 71.287924 
L 277.083501 69.957277 
L 270.32712 86.200966 
L 267.026288 68.920612 
L 270.205915 70.942369 
L 270.378692 69.266167 
L 273.731096 69.611722 
" style="fill:#0000ff;fill-opacity:0.5;"/>
    <path clip-path="url(#pd344532cd2)" d="M 260.114929 60.287146 
L 260.124189 61.972204 
L 263.485044 60.268625 
L 258.522475 77.146985 
L 253.374697 60.324188 
L 256.754073 61.990725 
L 256.744813 60.305667 
L 260.114929 60.287146 
" style="fill:#0000ff;fill-opacity:0.5;"/>
    <path clip-path="url(#pd344532cd2)" d="M 387.420264 140.610011 
L 386.889316 142.209261 
L 390.618764 141.671907 
L 380.511535 156.071562 
L 381.023264 138.48622 
L 383.690816 141.147365 
L 384.221764 139.548115 
L 387.420264 140.610011 
" style="fill:#0000ff;fill-opacity:0.5;"/>
    <path clip-path="url(#pd344532cd2)" d="M 372.529465 130.63985 
L 372.450507 132.323082 
L 375.89593 130.797767 
L 370.056648 147.393216 
L 365.796536 130.324016 
L 369.084042 132.165165 
L 369.163 130.481933 
L 372.529465 130.63985 
" style="fill:#0000ff;fill-opacity:0.5;"/>
    <path clip-path="url(#pd344532cd2)" d="M 362.759297 122.907443 
L 362.061524 124.441268 
L 365.826947 124.302989 
L 354.247741 137.547918 
L 356.623998 120.116351 
L 358.993874 123.045722 
L 359.691647 121.511897 
L 362.759297 122.907443 
" style="fill:#0000ff;fill-opacity:0.5;"/>
    <path clip-path="url(#pd344532cd2)" d="M 348.074616 112.748891 
L 347.79644 114.410855 
L 351.398544 113.305243 
L 343.630893 129.090354 
L 341.426761 111.636188 
L 344.472513 113.854503 
L 344.750688 112.192539 
L 348.074616 112.748891 
" style="fill:#0000ff;fill-opacity:0.5;"/>
    <path clip-path="url(#pd344532cd2)" d="M 337.582824 104.900521 
L 336.829067 106.407623 
L 340.597028 106.408034 
L 328.538156 119.217786 
L 331.554415 101.885495 
L 333.814863 104.90011 
L 334.568619 103.393008 
L 337.582824 104.900521 
" style="fill:#0000ff;fill-opacity:0.5;"/>
    <path clip-path="url(#pd344532cd2)" d="M 321.572689 94.223129 
L 321.51338 95.907168 
L 324.940767 94.341747 
L 319.29556 111.004213 
L 314.836532 93.985893 
L 318.145301 95.78855 
L 318.20461 94.104511 
L 321.572689 94.223129 
" style="fill:#0000ff;fill-opacity:0.5;"/>
    <path clip-path="url(#pd344532cd2)" d="M 309.925376 85.452314 
L 309.648181 87.114442 
L 313.249632 86.006705 
L 305.491294 101.796395 
L 303.276865 84.343532 
L 306.323925 86.560051 
L 306.601121 84.897923 
L 309.925376 85.452314 
" style="fill:#0000ff;fill-opacity:0.5;"/>
    <path clip-path="url(#pd344532cd2)" d="M 296.877962 76.235622 
L 296.66928 77.907734 
L 300.222186 76.652988 
L 293.119023 92.748056 
L 290.189516 75.400891 
L 293.325056 77.490368 
L 293.533739 75.818257 
L 296.877962 76.235622 
" style="fill:#0000ff;fill-opacity:0.5;"/>
    <path clip-path="url(#pd344532cd2)" d="M 284.477635 67.248961 
L 284.204178 68.911708 
L 287.803129 67.795875 
L 280.080318 83.602973 
L 277.826648 66.155133 
L 280.878684 68.364794 
L 281.152141 66.702047 
L 284.477635 67.248961 
" style="fill:#0000ff;fill-opacity:0.5;"/>
    <path clip-path="url(#pd344532cd2)" d="M 271.411675 58.026996 
L 271.210501 59.700028 
L 274.757739 58.429346 
L 267.726895 74.556137 
L 264.719549 57.222297 
L 267.864437 59.297678 
L 268.065612 57.624646 
L 271.411675 58.026996 
" style="fill:#0000ff;fill-opacity:0.5;"/>
    <path clip-path="url(#pd344532cd2)" d="M 398.840456 138.875494 
L 398.055116 140.366382 
L 401.822232 140.446172 
L 389.496174 152.999037 
L 392.876903 135.734136 
L 395.07334 138.795703 
L 395.858679 137.304815 
L 398.840456 138.875494 
" style="fill:#0000ff;fill-opacity:0.5;"/>
    <path clip-path="url(#pd344532cd2)" d="M 384.492255 128.732269 
L 384.061216 130.36129 
L 387.750298 129.594348 
L 378.55284 144.591444 
L 377.97617 127.008111 
L 380.803173 129.499211 
L 381.234213 127.87019 
L 384.492255 128.732269 
" style="fill:#0000ff;fill-opacity:0.5;"/>
    <path clip-path="url(#pd344532cd2)" d="M 371.928517 119.709985 
L 371.465499 121.330207 
L 375.168962 120.636022 
L 365.678111 135.449188 
L 365.447629 117.857911 
L 368.225055 120.40417 
L 368.688073 118.783948 
L 371.928517 119.709985 
" style="fill:#0000ff;fill-opacity:0.5;"/>
    <path clip-path="url(#pd344532cd2)" d="M 358.958636 110.485619 
L 358.549516 112.120283 
L 362.227964 111.30386 
L 353.232766 126.423137 
L 352.419981 108.849136 
L 355.280188 111.302042 
L 355.689309 109.667378 
L 358.958636 110.485619 
" style="fill:#0000ff;fill-opacity:0.5;"/>
    <path clip-path="url(#pd344532cd2)" d="M 345.790014 101.18808 
L 345.475825 102.843614 
L 349.101081 101.816459 
L 340.99259 117.429226 
L 339.16788 99.931324 
L 342.164758 102.215236 
L 342.478947 100.559702 
L 345.790014 101.18808 
" style="fill:#0000ff;fill-opacity:0.5;"/>
    <path clip-path="url(#pd344532cd2)" d="M 332.475192 91.872303 
L 332.284752 93.546591 
L 335.823767 92.253185 
L 328.896497 108.424736 
L 325.778043 91.11054 
L 328.936177 93.165709 
L 329.126618 91.491422 
L 332.475192 91.872303 
" style="fill:#0000ff;fill-opacity:0.5;"/>
    <path clip-path="url(#pd344532cd2)" d="M 319.777367 82.779524 
L 319.583444 84.453412 
L 323.125142 83.167369 
L 316.164256 99.324478 
L 313.081816 82.003835 
L 316.235669 84.065567 
L 316.429591 82.391679 
L 319.777367 82.779524 
" style="fill:#0000ff;fill-opacity:0.5;"/>
    <path clip-path="url(#pd344532cd2)" d="M 308.384051 74.234066 
L 307.914729 75.852473 
L 311.620866 75.17271 
L 302.072423 89.948818 
L 301.910422 72.356777 
L 304.677914 74.913829 
L 305.147236 73.295421 
L 308.384051 74.234066 
" style="fill:#0000ff;fill-opacity:0.5;"/>
    <path clip-path="url(#pd344532cd2)" d="M 293.395114 64.334273 
L 293.393948 66.019356 
L 296.76528 64.336606 
L 291.698368 81.183936 
L 286.654782 64.329608 
L 290.023782 66.017023 
L 290.024948 64.33194 
L 293.395114 64.334273 
" style="fill:#0000ff;fill-opacity:0.5;"/>
    <path clip-path="url(#pd344532cd2)" d="M 281.85077 55.55844 
L 281.612109 57.226537 
L 285.186964 56.035764 
L 277.796058 72.000745 
L 275.178384 54.603794 
L 278.275915 56.749214 
L 278.514577 55.081117 
L 281.85077 55.55844 
" style="fill:#0000ff;fill-opacity:0.5;"/>
    <path clip-path="url(#pd344532cd2)" d="M 409.339642 136.549393 
L 408.499781 138.010263 
L 412.26138 138.229116 
L 399.480162 150.318226 
L 403.496164 133.189949 
L 405.578042 136.330541 
L 406.417903 134.869671 
L 409.339642 136.549393 
" style="fill:#0000ff;fill-opacity:0.5;"/>
    <path clip-path="url(#pd344532cd2)" d="M 395.78377 126.802036 
L 395.130612 128.355384 
L 398.890467 128.108352 
L 387.698844 141.682361 
L 389.570377 124.189405 
L 392.023916 127.049069 
L 392.677074 125.495721 
L 395.78377 126.802036 
" style="fill:#0000ff;fill-opacity:0.5;"/>
    <path clip-path="url(#pd344532cd2)" d="M 383.848252 118.299349 
L 383.022319 119.768138 
L 386.78583 119.951215 
L 374.120135 132.161305 
L 377.973097 114.995617 
L 380.084742 118.116272 
L 380.910675 116.647483 
L 383.848252 118.299349 
" style="fill:#0000ff;fill-opacity:0.5;"/>
    <path clip-path="url(#pd344532cd2)" d="M 369.131453 107.915741 
L 368.73995 109.554714 
L 372.409398 108.698747 
L 363.57745 123.913964 
L 362.575563 106.349729 
L 365.462005 108.771708 
L 365.853508 107.132735 
L 369.131453 107.915741 
" style="fill:#0000ff;fill-opacity:0.5;"/>
    <path clip-path="url(#pd344532cd2)" d="M 355.401439 98.425477 
L 355.22024 100.10079 
L 358.752065 98.787875 
L 351.914136 114.997405 
L 348.700188 97.700681 
L 351.869615 99.738392 
L 352.050814 98.063079 
L 355.401439 98.425477 
" style="fill:#0000ff;fill-opacity:0.5;"/>
    <path clip-path="url(#pd344532cd2)" d="M 342.627504 89.308836 
L 342.458378 90.985411 
L 345.980653 89.647089 
L 339.259665 105.905455 
L 335.921206 88.632331 
L 339.105229 90.647158 
L 339.274355 88.970584 
L 342.627504 89.308836 
" style="fill:#0000ff;fill-opacity:0.5;"/>
    <path clip-path="url(#pd344532cd2)" d="M 330.454892 80.397093 
L 330.174318 82.058653 
L 333.778013 80.95824 
L 325.987596 96.732127 
L 323.808649 79.274799 
L 326.851197 81.497506 
L 327.13177 79.835946 
L 330.454892 80.397093 
" style="fill:#0000ff;fill-opacity:0.5;"/>
    <path clip-path="url(#pd344532cd2)" d="M 318.15286 71.468837 
L 317.786363 73.113582 
L 321.44235 72.201831 
L 312.843144 87.549788 
L 311.573881 70.002848 
L 314.496874 72.380587 
L 314.863371 70.735842 
L 318.15286 71.468837 
" style="fill:#0000ff;fill-opacity:0.5;"/>
    <path clip-path="url(#pd344532cd2)" d="M 305.220021 62.277672 
L 304.899021 63.931899 
L 308.528473 62.919671 
L 300.355797 78.498937 
L 298.603115 60.993673 
L 301.590568 63.289899 
L 301.911568 61.635673 
L 305.220021 62.277672 
" style="fill:#0000ff;fill-opacity:0.5;"/>
    <path clip-path="url(#pd344532cd2)" d="M 290.150707 52.585039 
L 290.305352 54.263011 
L 293.506651 52.275748 
L 290.019189 69.519406 
L 283.438818 53.203621 
L 286.949408 54.572302 
L 286.794762 52.89433 
L 290.150707 52.585039 
" style="fill:#0000ff;fill-opacity:0.5;"/>
    <path clip-path="url(#pd344532cd2)" d="M 419.090664 133.608772 
L 418.363794 135.129024 
L 422.131168 135.062511 
L 410.301715 148.084422 
L 413.009656 130.701293 
L 415.32329 133.675284 
L 416.05016 132.155032 
L 419.090664 133.608772 
" style="fill:#0000ff;fill-opacity:0.5;"/>
    <path clip-path="url(#pd344532cd2)" d="M 405.120777 123.728489 
L 404.665342 125.350859 
L 408.365517 124.63936 
L 398.944051 139.496753 
L 398.631298 121.906746 
L 401.420602 124.439987 
L 401.876037 122.817617 
L 405.120777 123.728489 
" style="fill:#0000ff;fill-opacity:0.5;"/>
    <path clip-path="url(#pd344532cd2)" d="M 392.416432 114.635581 
L 391.958774 116.257325 
L 395.659921 115.550898 
L 386.218103 130.395365 
L 385.929455 112.804947 
L 388.715285 115.342008 
L 389.172944 113.720264 
L 392.416432 114.635581 
" style="fill:#0000ff;fill-opacity:0.5;"/>
    <path clip-path="url(#pd344532cd2)" d="M 381.44682 106.719598 
L 380.60807 108.181105 
L 384.369835 108.397098 
L 371.59781 120.495921 
L 375.600791 103.364597 
L 377.685055 106.503604 
L 378.523805 105.042097 
L 381.44682 106.719598 
" style="fill:#0000ff;fill-opacity:0.5;"/>
    <path clip-path="url(#pd344532cd2)" d="M 367.187761 96.545156 
L 366.687369 98.154228 
L 370.405905 97.54594 
L 360.574767 112.135486 
L 360.751472 94.543587 
L 363.469224 97.153444 
L 363.969616 95.544372 
L 367.187761 96.545156 
" style="fill:#0000ff;fill-opacity:0.5;"/>
    <path clip-path="url(#pd344532cd2)" d="M 354.679396 87.563116 
L 354.134828 89.157779 
L 357.868723 88.652251 
L 347.639055 102.965183 
L 348.300742 85.384845 
L 350.945501 88.068644 
L 351.490069 86.47398 
L 354.679396 87.563116 
" style="fill:#0000ff;fill-opacity:0.5;"/>
    <path clip-path="url(#pd344532cd2)" d="M 340.644464 77.841109 
L 340.377752 79.504951 
L 343.972149 78.374534 
L 336.313497 94.212816 
L 333.989096 76.774259 
L 337.050068 78.971526 
L 337.31678 77.307684 
L 340.644464 77.841109 
" style="fill:#0000ff;fill-opacity:0.5;"/>
    <path clip-path="url(#pd344532cd2)" d="M 327.20045 68.507868 
L 327.083003 70.188853 
L 330.562421 68.742764 
L 324.344987 85.200274 
L 320.476509 68.038077 
L 323.721032 69.953958 
L 323.83848 68.272972 
L 327.20045 68.507868 
" style="fill:#0000ff;fill-opacity:0.5;"/>
    <path clip-path="url(#pd344532cd2)" d="M 314.42382 59.392943 
L 314.318898 61.074756 
L 317.787448 59.602789 
L 311.692777 76.106156 
L 307.696566 58.973251 
L 310.95527 60.86491 
L 311.060193 59.183097 
L 314.42382 59.392943 
" style="fill:#0000ff;fill-opacity:0.5;"/>
    <path clip-path="url(#pd344532cd2)" d="M 301.631432 50.274464 
L 301.542201 51.957183 
L 304.99687 50.452925 
L 299.056404 67.012424 
L 294.900555 49.91754 
L 298.176763 51.778721 
L 298.265993 50.096002 
L 301.631432 50.274464 
" style="fill:#0000ff;fill-opacity:0.5;"/>
    <path clip-path="url(#pd344532cd2)" d="M 430.634504 132.266515 
L 429.614377 133.607727 
L 433.316926 134.306769 
L 419.092027 144.658502 
L 425.269658 128.186009 
L 426.931954 131.567474 
L 427.952081 130.226262 
L 430.634504 132.266515 
" style="fill:#0000ff;fill-opacity:0.5;"/>
    <path clip-path="url(#pd344532cd2)" d="M 415.162559 121.092106 
L 414.752498 122.726534 
L 418.431416 121.912228 
L 409.427521 137.026327 
L 408.624846 119.451862 
L 411.483642 121.906412 
L 411.893703 120.271984 
L 415.162559 121.092106 
" style="fill:#0000ff;fill-opacity:0.5;"/>
    <path clip-path="url(#pd344532cd2)" d="M 403.068579 112.320265 
L 402.526569 113.915799 
L 406.259648 113.404286 
L 396.052939 127.733599 
L 396.686441 110.152222 
L 399.3355 112.831778 
L 399.87751 111.236244 
L 403.068579 112.320265 
" style="fill:#0000ff;fill-opacity:0.5;"/>
    <path clip-path="url(#pd344532cd2)" d="M 389.039658 102.602975 
L 388.774166 104.267012 
L 392.367733 103.13396 
L 384.720694 118.977853 
L 382.38351 101.541004 
L 385.446092 103.736026 
L 385.711584 102.071989 
L 389.039658 102.602975 
" style="fill:#0000ff;fill-opacity:0.5;"/>
    <path clip-path="url(#pd344532cd2)" d="M 377.659407 94.135652 
L 377.112997 95.729685 
L 380.847473 95.228472 
L 370.601274 109.529574 
L 371.283274 91.950012 
L 373.92493 94.636865 
L 374.47134 93.042832 
L 377.659407 94.135652 
" style="fill:#0000ff;fill-opacity:0.5;"/>
    <path clip-path="url(#pd344532cd2)" d="M 363.990706 84.558282 
L 363.64616 86.207764 
L 367.289672 85.247375 
L 358.895756 100.708563 
L 357.392775 83.180095 
L 360.347194 85.518671 
L 360.691741 83.869188 
L 363.990706 84.558282 
" style="fill:#0000ff;fill-opacity:0.5;"/>
    <path clip-path="url(#pd344532cd2)" d="M 351.450095 75.536656 
L 351.069096 77.178103 
L 354.732987 76.298653 
L 345.998664 91.570121 
L 344.884309 74.012663 
L 347.786204 76.416106 
L 348.167202 74.774659 
L 351.450095 75.536656 
" style="fill:#0000ff;fill-opacity:0.5;"/>
    <path clip-path="url(#pd344532cd2)" d="M 338.505746 66.338397 
L 338.172731 67.990247 
L 341.809446 67.004427 
L 333.523748 82.523878 
L 331.898348 65.006338 
L 334.869032 67.324217 
L 335.202047 65.672368 
L 338.505746 66.338397 
" style="fill:#0000ff;fill-opacity:0.5;"/>
    <path clip-path="url(#pd344532cd2)" d="M 326.929052 57.819292 
L 326.354889 59.403541 
L 330.097548 58.967618 
L 319.603173 73.087612 
L 320.592058 55.52264 
L 323.186392 58.255215 
L 323.760555 56.670966 
L 326.929052 57.819292 
" style="fill:#0000ff;fill-opacity:0.5;"/>
    <path clip-path="url(#pd344532cd2)" d="M 313.636118 48.400237 
L 313.185466 50.023942 
L 316.883529 49.30154 
L 307.505896 64.186638 
L 307.141297 46.59763 
L 309.938056 49.122639 
L 310.388707 47.498933 
L 313.636118 48.400237 
" style="fill:#0000ff;fill-opacity:0.5;"/>
    <path clip-path="url(#pd344532cd2)" d="M 438.604649 127.901099 
L 438.09479 129.507197 
L 441.816844 128.920818 
L 431.89996 143.452217 
L 432.180258 125.861663 
L 434.882595 128.487479 
L 435.392454 126.881381 
L 438.604649 127.901099 
" style="fill:#0000ff;fill-opacity:0.5;"/>
    <path clip-path="url(#pd344532cd2)" d="M 426.234227 119.003708 
L 425.65041 120.584424 
L 429.395659 120.171344 
L 418.815332 134.227048 
L 419.911364 116.668436 
L 422.488978 119.416788 
L 423.072796 117.836072 
L 426.234227 119.003708 
" style="fill:#0000ff;fill-opacity:0.5;"/>
    <path clip-path="url(#pd344532cd2)" d="M 413.866278 110.130371 
L 413.207101 111.681174 
L 416.967885 111.448725 
L 405.723701 124.979227 
L 407.663065 107.493661 
L 410.105494 110.362819 
L 410.764672 108.812016 
L 413.866278 110.130371 
" style="fill:#0000ff;fill-opacity:0.5;"/>
    <path clip-path="url(#pd344532cd2)" d="M 400.841713 100.83016 
L 400.249867 102.407887 
L 403.997168 102.013852 
L 393.345523 116.015588 
L 394.530803 98.462775 
L 397.094412 101.224195 
L 397.686258 99.646467 
L 400.841713 100.83016 
" style="fill:#0000ff;fill-opacity:0.5;"/>
    <path clip-path="url(#pd344532cd2)" d="M 388.802357 92.19805 
L 388.062682 93.712113 
L 391.830483 93.677399 
L 379.891547 106.599007 
L 382.746104 89.239351 
L 385.034556 92.232764 
L 385.77423 90.718701 
L 388.802357 92.19805 
" style="fill:#0000ff;fill-opacity:0.5;"/>
    <path clip-path="url(#pd344532cd2)" d="M 373.119345 81.636431 
L 373.006757 83.317749 
L 376.481981 81.861607 
L 370.312145 98.337021 
L 366.394074 81.186078 
L 369.644122 83.092572 
L 369.75671 81.411254 
L 373.119345 81.636431 
" style="fill:#0000ff;fill-opacity:0.5;"/>
    <path clip-path="url(#pd344532cd2)" d="M 362.899604 73.665186 
L 362.263843 75.225735 
L 366.020703 74.936706 
L 354.981451 88.63492 
L 356.657406 71.122144 
L 359.142744 73.954214 
L 359.778505 72.393665 
L 362.899604 73.665186 
" style="fill:#0000ff;fill-opacity:0.5;"/>
    <path clip-path="url(#pd344532cd2)" d="M 348.47557 63.693681 
L 348.202088 65.356424 
L 351.801055 64.240644 
L 344.07801 80.047627 
L 341.824599 62.599754 
L 344.876603 64.80946 
L 345.150084 63.146718 
L 348.47557 63.693681 
" style="fill:#0000ff;fill-opacity:0.5;"/>
    <path clip-path="url(#pd344532cd2)" d="M 335.950086 54.669352 
L 335.637347 56.32516 
L 339.261702 55.294829 
L 331.166892 70.914694 
L 329.326853 53.418398 
L 332.325731 55.699683 
L 332.638469 54.043875 
L 335.950086 54.669352 
" style="fill:#0000ff;fill-opacity:0.5;"/>
    <path clip-path="url(#pd344532cd2)" d="M 323.81706 45.831735 
L 323.382411 47.459797 
L 327.073184 46.701034 
L 317.842503 61.677704 
L 317.304813 44.093136 
L 320.126287 46.590497 
L 320.560937 44.962436 
L 323.81706 45.831735 
" style="fill:#0000ff;fill-opacity:0.5;"/>
    <path clip-path="url(#pd344532cd2)" d="M 450.116927 126.216626 
L 449.333043 127.70828 
L 453.100235 127.784394 
L 440.786432 140.349281 
L 444.150311 123.081089 
L 446.349735 126.140512 
L 447.133619 124.648858 
L 450.116927 126.216626 
" style="fill:#0000ff;fill-opacity:0.5;"/>
    <path clip-path="url(#pd344532cd2)" d="M 436.679667 116.592493 
L 436.054936 118.157491 
L 439.809662 117.841954 
L 428.867368 131.617741 
L 430.419675 114.093573 
L 432.924941 116.908031 
L 433.549671 115.343033 
L 436.679667 116.592493 
" style="fill:#0000ff;fill-opacity:0.5;"/>
    <path clip-path="url(#pd344532cd2)" d="M 424.050876 107.551001 
L 423.407415 109.108392 
L 427.165656 108.837921 
L 416.058884 122.481445 
L 417.821314 104.977161 
L 420.292635 107.821471 
L 420.936095 106.264081 
L 424.050876 107.551001 
" style="fill:#0000ff;fill-opacity:0.5;"/>
    <path clip-path="url(#pd344532cd2)" d="M 411.579447 98.621576 
L 410.882685 100.15586 
L 414.648016 100.015101 
L 403.077538 113.267654 
L 405.442311 95.834525 
L 407.814117 98.762335 
L 408.510879 97.228051 
L 411.579447 98.621576 
" style="fill:#0000ff;fill-opacity:0.5;"/>
    <path clip-path="url(#pd344532cd2)" d="M 398.347326 89.17883 
L 397.763291 90.759466 
L 401.508597 90.3469 
L 390.926343 104.401153 
L 392.024783 86.842692 
L 394.60202 89.591397 
L 395.186054 88.010761 
L 398.347326 89.17883 
" style="fill:#0000ff;fill-opacity:0.5;"/>
    <path clip-path="url(#pd344532cd2)" d="M 385.721803 80.136249 
L 385.118452 81.709612 
L 388.868531 81.342952 
L 378.114925 95.266533 
L 379.428349 77.722843 
L 381.971725 80.502909 
L 382.575076 78.929546 
L 385.721803 80.136249 
" style="fill:#0000ff;fill-opacity:0.5;"/>
    <path clip-path="url(#pd344532cd2)" d="M 371.972101 70.479223 
L 371.589254 72.120239 
L 375.254133 71.244917 
L 366.502613 86.506536 
L 365.408037 68.947834 
L 368.307222 71.354544 
L 368.690069 69.713528 
L 371.972101 70.479223 
" style="fill:#0000ff;fill-opacity:0.5;"/>
    <path clip-path="url(#pd344532cd2)" d="M 359.046978 61.288756 
L 358.708117 62.939416 
L 362.348299 61.966477 
L 354.007712 77.456498 
L 352.444337 59.933313 
L 355.406797 62.261695 
L 355.745658 60.611035 
L 359.046978 61.288756 
" style="fill:#0000ff;fill-opacity:0.5;"/>
    <path clip-path="url(#pd344532cd2)" d="M 345.033122 51.759802 
L 344.960639 53.443326 
L 348.40017 51.904769 
L 342.624763 68.522556 
L 338.299028 51.469868 
L 341.593591 53.298359 
L 341.666075 51.614835 
L 345.033122 51.759802 
" style="fill:#0000ff;fill-opacity:0.5;"/>
    <path clip-path="url(#pd344532cd2)" d="M 334.825317 43.719867 
L 334.230008 45.296291 
L 337.978165 44.910485 
L 327.295801 58.888798 
L 328.519621 41.33863 
L 331.07716 44.105672 
L 331.672469 42.529248 
L 334.825317 43.719867 
" style="fill:#0000ff;fill-opacity:0.5;"/>
    <path clip-path="url(#pd344532cd2)" d="M 460.166719 123.52343 
L 459.428854 125.038376 
L 463.196611 124.999159 
L 451.273124 137.935025 
L 454.106935 120.57197 
L 456.398962 123.562646 
L 457.136827 122.0477 
L 460.166719 123.52343 
" style="fill:#0000ff;fill-opacity:0.5;"/>
    <path clip-path="url(#pd344532cd2)" d="M 447.059214 114.143351 
L 446.407702 115.69739 
L 450.167292 115.446375 
L 438.990055 129.032232 
L 440.843057 111.537303 
L 443.299623 114.394366 
L 443.951135 112.840327 
L 447.059214 114.143351 
" style="fill:#0000ff;fill-opacity:0.5;"/>
    <path clip-path="url(#pd344532cd2)" d="M 432.925187 104.269555 
L 432.576425 105.918151 
L 436.22238 104.967079 
L 427.788971 120.406759 
L 426.3308 102.874507 
L 429.279232 105.220628 
L 429.627994 103.572031 
L 432.925187 104.269555 
" style="fill:#0000ff;fill-opacity:0.5;"/>
    <path clip-path="url(#pd344532cd2)" d="M 420.443114 95.275439 
L 420.045585 96.91296 
L 423.718157 96.070497 
L 414.830301 111.253124 
L 413.893028 93.685322 
L 416.770542 96.117902 
L 417.168071 94.480381 
L 420.443114 95.275439 
" style="fill:#0000ff;fill-opacity:0.5;"/>
    <path clip-path="url(#pd344532cd2)" d="M 409.090765 86.970796 
L 408.400696 88.508102 
L 412.165377 88.350934 
L 400.652767 101.653789 
L 402.94154 84.210519 
L 405.326083 87.127964 
L 406.016152 85.590657 
L 409.090765 86.970796 
" style="fill:#0000ff;fill-opacity:0.5;"/>
    <path clip-path="url(#pd344532cd2)" d="M 395.183051 77.160116 
L 394.749782 78.788546 
L 398.439911 78.026653 
L 389.221937 93.011148 
L 388.669331 75.427043 
L 391.492922 77.92201 
L 391.926191 76.29358 
L 395.183051 77.160116 
" style="fill:#0000ff;fill-opacity:0.5;"/>
    <path clip-path="url(#pd344532cd2)" d="M 382.13937 67.908518 
L 381.775239 69.553788 
L 385.429911 68.63678 
L 376.852791 83.997091 
L 375.558288 66.451994 
L 378.484698 68.825527 
L 378.848829 67.180256 
L 382.13937 67.908518 
" style="fill:#0000ff;fill-opacity:0.5;"/>
    <path clip-path="url(#pd344532cd2)" d="M 368.888034 58.595003 
L 368.635356 60.261034 
L 372.220096 59.100359 
L 364.695219 75.002635 
L 362.22391 57.584289 
L 365.303293 59.755677 
L 365.555972 58.089646 
L 368.888034 58.595003 
" style="fill:#0000ff;fill-opacity:0.5;"/>
    <path clip-path="url(#pd344532cd2)" d="M 357.963179 50.394081 
L 357.331761 51.956393 
L 361.087802 51.656917 
L 350.086687 65.385778 
L 351.713933 47.868409 
L 354.207138 50.693556 
L 354.838556 49.131245 
L 357.963179 50.394081 
" style="fill:#0000ff;fill-opacity:0.5;"/>
    <path clip-path="url(#pd344532cd2)" d="M 342.531221 40.120242 
L 342.467541 41.804122 
L 345.89898 40.247601 
L 340.210545 56.895359 
L 335.795702 39.865524 
L 339.099782 41.676763 
L 339.163462 39.992883 
L 342.531221 40.120242 
" style="fill:#0000ff;fill-opacity:0.5;"/>
    <path clip-path="url(#pd344532cd2)" d="M 469.922366 120.638895 
L 469.294446 122.202616 
L 473.049807 121.894735 
L 462.079444 135.648181 
L 463.667483 118.127214 
L 466.167005 120.946775 
L 466.794925 119.383055 
L 469.922366 120.638895 
" style="fill:#0000ff;fill-opacity:0.5;"/>
    <path clip-path="url(#pd344532cd2)" d="M 458.211115 112.308048 
L 457.360682 113.762789 
L 461.120596 114.008914 
L 448.252048 126.005021 
L 452.392152 108.906318 
L 454.451201 112.061924 
L 455.301633 110.607183 
L 458.211115 112.308048 
" style="fill:#0000ff;fill-opacity:0.5;"/>
    <path clip-path="url(#pd344532cd2)" d="M 444.392499 102.377825 
L 443.78633 103.950106 
L 447.53706 103.590162 
L 436.758536 117.494462 
L 438.103377 99.953152 
L 440.641769 102.737769 
L 441.247938 101.165489 
L 444.392499 102.377825 
" style="fill:#0000ff;fill-opacity:0.5;"/>
    <path clip-path="url(#pd344532cd2)" d="M 432.239365 93.668085 
L 431.510234 95.187254 
L 435.277703 95.126346 
L 423.42889 108.130645 
L 426.162688 90.751563 
L 428.471896 93.728993 
L 429.201027 92.209824 
L 432.239365 93.668085 
" style="fill:#0000ff;fill-opacity:0.5;"/>
    <path clip-path="url(#pd344532cd2)" d="M 417.395442 83.398414 
L 417.120806 85.060967 
L 420.720547 83.947686 
L 412.986529 99.749303 
L 410.745232 82.29987 
L 413.795701 84.511695 
L 414.070337 82.849142 
L 417.395442 83.398414 
" style="fill:#0000ff;fill-opacity:0.5;"/>
    <path clip-path="url(#pd344532cd2)" d="M 404.69695 74.306346 
L 404.418933 75.968336 
L 408.020931 74.862379 
L 400.254791 90.648234 
L 398.048988 73.194278 
L 401.094952 75.412302 
L 401.372969 73.750312 
L 404.69695 74.306346 
" style="fill:#0000ff;fill-opacity:0.5;"/>
    <path clip-path="url(#pd344532cd2)" d="M 392.337968 65.352488 
L 391.985964 67.000396 
L 395.633783 66.056496 
L 387.170022 81.47956 
L 385.746338 63.944473 
L 388.690149 66.296388 
L 389.042153 64.648481 
L 392.337968 65.352488 
" style="fill:#0000ff;fill-opacity:0.5;"/>
    <path clip-path="url(#pd344532cd2)" d="M 380.236551 56.548612 
L 379.75526 58.1635 
L 383.466328 57.511194 
L 373.808752 72.216205 
L 373.776998 54.623447 
L 376.525483 57.200918 
L 377.006775 55.586029 
L 380.236551 56.548612 
" style="fill:#0000ff;fill-opacity:0.5;"/>
    <path clip-path="url(#pd344532cd2)" d="M 367.31019 47.342046 
L 366.873743 48.969627 
L 370.565352 48.21494 
L 361.318138 63.181408 
L 360.799867 45.596257 
L 363.618581 48.096733 
L 364.055028 46.469152 
L 367.31019 47.342046 
" style="fill:#0000ff;fill-opacity:0.5;"/>
    <path clip-path="url(#pd344532cd2)" d="M 353.603267 37.828129 
L 353.373593 39.497486 
L 356.941983 38.287476 
L 349.63717 54.292034 
L 346.925835 36.909433 
L 350.034877 39.038139 
L 350.264551 37.368781 
L 353.603267 37.828129 
" style="fill:#0000ff;fill-opacity:0.5;"/>
    <path clip-path="url(#pd344532cd2)" d="M 480.117181 118.068144 
L 479.502681 119.637188 
L 483.255267 119.297143 
L 472.403145 133.144077 
L 473.841008 115.610147 
L 476.364595 118.408189 
L 476.979094 116.839146 
L 480.117181 118.068144 
" style="fill:#0000ff;fill-opacity:0.5;"/>
    <path clip-path="url(#pd344532cd2)" d="M 467.103012 108.786264 
L 466.553139 110.379106 
L 470.288696 109.886009 
L 460.011444 124.164812 
L 460.731643 106.586773 
L 463.367455 109.279361 
L 463.917328 107.686519 
L 467.103012 108.786264 
" style="fill:#0000ff;fill-opacity:0.5;"/>
    <path clip-path="url(#pd344532cd2)" d="M 454.307674 99.641441 
L 453.775074 101.240141 
L 457.505075 100.706641 
L 447.382973 115.095844 
L 447.912872 97.51104 
L 450.577673 100.174941 
L 451.110273 98.57624 
L 454.307674 99.641441 
" style="fill:#0000ff;fill-opacity:0.5;"/>
    <path clip-path="url(#pd344532cd2)" d="M 443.370817 91.892663 
L 442.444395 93.300232 
L 446.185953 93.745507 
L 432.69903 105.041925 
L 437.740543 88.186976 
L 439.629258 91.447388 
L 440.55568 90.03982 
L 443.370817 91.892663 
" style="fill:#0000ff;fill-opacity:0.5;"/>
    <path clip-path="url(#pd344532cd2)" d="M 429.745841 82.01271 
L 429.024512 83.535599 
L 432.791618 83.455369 
L 421.009658 96.520267 
L 423.654287 79.127392 
L 425.978735 82.09294 
L 426.700064 80.570051 
L 429.745841 82.01271 
" style="fill:#0000ff;fill-opacity:0.5;"/>
    <path clip-path="url(#pd344532cd2)" d="M 417.574809 73.354628 
L 416.731972 74.813782 
L 420.493118 75.040301 
L 407.687289 87.103338 
L 411.73819 69.983281 
L 413.813663 73.128109 
L 414.6565 71.668955 
L 417.574809 73.354628 
" style="fill:#0000ff;fill-opacity:0.5;"/>
    <path clip-path="url(#pd344532cd2)" d="M 403.576403 63.323027 
L 403.016305 64.912302 
L 406.754954 64.443223 
L 396.386148 78.655682 
L 397.219302 61.082635 
L 399.837754 63.792106 
L 400.397852 62.202831 
L 403.576403 63.323027 
" style="fill:#0000ff;fill-opacity:0.5;"/>
    <path clip-path="url(#pd344532cd2)" d="M 389.579842 53.6006 
L 389.290237 55.26061 
L 392.899863 54.179811 
L 385.023775 69.911098 
L 382.939801 52.442177 
L 385.970216 54.681399 
L 386.259821 53.021388 
L 389.579842 53.6006 
" style="fill:#0000ff;fill-opacity:0.5;"/>
    <path clip-path="url(#pd344532cd2)" d="M 378.246455 45.186691 
L 377.664865 46.768228 
L 381.409529 46.34987 
L 370.849022 60.420472 
L 371.920306 42.860333 
L 374.501791 45.605049 
L 375.08338 44.023512 
L 378.246455 45.186691 
" style="fill:#0000ff;fill-opacity:0.5;"/>
    <path clip-path="url(#pd344532cd2)" d="M 363.469663 35.172303 
L 363.31984 36.850712 
L 366.826482 35.47195 
L 360.293018 51.806575 
L 356.756025 34.573009 
L 359.96302 36.551065 
L 360.112844 34.872656 
L 363.469663 35.172303 
" style="fill:#0000ff;fill-opacity:0.5;"/>
    <path clip-path="url(#pd344532cd2)" d="M 492.02237 116.914821 
L 491.037857 118.282389 
L 494.757504 118.883847 
L 480.809672 129.60598 
L 486.552101 112.976769 
L 488.302722 116.313362 
L 489.287235 114.945795 
L 492.02237 116.914821 
" style="fill:#0000ff;fill-opacity:0.5;"/>
    <path clip-path="url(#pd344532cd2)" d="M 476.609052 105.864296 
L 476.218565 107.503511 
L 479.887482 106.64527 
L 471.06497 121.86596 
L 470.052192 104.30235 
L 472.940135 106.722538 
L 473.330622 105.083323 
L 476.609052 105.864296 
" style="fill:#0000ff;fill-opacity:0.5;"/>
    <path clip-path="url(#pd344532cd2)" d="M 465.263897 97.556472 
L 464.57961 99.09636 
L 468.343674 98.925048 
L 456.88113 112.271067 
L 459.104344 94.81932 
L 461.499833 97.727785 
L 462.184121 96.187896 
L 465.263897 97.556472 
" style="fill:#0000ff;fill-opacity:0.5;"/>
    <path clip-path="url(#pd344532cd2)" d="M 452.30282 88.290391 
L 451.672341 89.853082 
L 455.428201 89.551348 
L 444.435342 103.28682 
L 446.052056 85.768476 
L 448.546959 88.592124 
L 449.177438 87.029434 
L 452.30282 88.290391 
" style="fill:#0000ff;fill-opacity:0.5;"/>
    <path clip-path="url(#pd344532cd2)" d="M 438.862422 78.765187 
L 438.387896 80.382077 
L 442.096201 79.71424 
L 432.50027 94.459553 
L 432.394866 76.867082 
L 435.154118 79.433024 
L 435.628644 77.816135 
L 438.862422 78.765187 
" style="fill:#0000ff;fill-opacity:0.5;"/>
    <path clip-path="url(#pd344532cd2)" d="M 427.379407 70.45301 
L 426.637759 71.966107 
L 430.405602 71.936307 
L 418.449826 84.842334 
L 421.327018 67.486416 
L 423.611564 70.48281 
L 424.353213 68.969713 
L 427.379407 70.45301 
" style="fill:#0000ff;fill-opacity:0.5;"/>
    <path clip-path="url(#pd344532cd2)" d="M 413.82323 60.786512 
L 413.265233 62.376527 
L 417.003259 61.902505 
L 406.653253 76.128661 
L 407.463172 58.554527 
L 410.085204 61.260534 
L 410.643201 59.67052 
L 413.82323 60.786512 
" style="fill:#0000ff;fill-opacity:0.5;"/>
    <path clip-path="url(#pd344532cd2)" d="M 400.475731 51.348275 
L 400.052477 52.979337 
L 403.737854 52.194783 
L 394.61213 67.235637 
L 393.951485 49.655259 
L 396.790354 52.132829 
L 397.213608 50.501767 
L 400.475731 51.348275 
" style="fill:#0000ff;fill-opacity:0.5;"/>
    <path clip-path="url(#pd344532cd2)" d="M 388.073284 42.409366 
L 387.583827 44.021798 
L 391.298148 43.38828 
L 381.566281 58.044231 
L 381.623555 40.451537 
L 384.358962 43.042884 
L 384.848419 41.430452 
L 388.073284 42.409366 
" style="fill:#0000ff;fill-opacity:0.5;"/>
    <path clip-path="url(#pd344532cd2)" d="M 374.014301 32.731949 
L 373.805609 34.40406 
L 377.358522 33.149332 
L 370.255274 49.244363 
L 367.325858 31.897183 
L 370.461388 33.986677 
L 370.670079 32.314566 
L 374.014301 32.731949 
" style="fill:#0000ff;fill-opacity:0.5;"/>
    <path clip-path="url(#pd344532cd2)" d="M 501.107121 113.335957 
L 500.388276 114.86002 
L 504.155247 114.773647 
L 492.394609 127.857742 
L 495.010869 110.460578 
L 497.34015 113.422331 
L 498.058995 111.898268 
L 501.107121 113.335957 
" style="fill:#0000ff;fill-opacity:0.5;"/>
    <path clip-path="url(#pd344532cd2)" d="M 488.149234 104.063913 
L 487.483814 105.612048 
L 491.245504 105.394752 
L 479.9469 118.879843 
L 481.956694 101.402233 
L 484.387544 104.281208 
L 485.052964 102.733073 
L 488.149234 104.063913 
" style="fill:#0000ff;fill-opacity:0.5;"/>
    <path clip-path="url(#pd344532cd2)" d="M 476.612161 95.942679 
L 475.682671 97.348223 
L 479.423249 97.80166 
L 465.911714 109.068628 
L 470.989985 92.224718 
L 472.871583 95.489243 
L 473.801073 94.083699 
L 476.612161 95.942679 
" style="fill:#0000ff;fill-opacity:0.5;"/>
    <path clip-path="url(#pd344532cd2)" d="M 462.976956 86.051835 
L 462.254945 87.574401 
L 466.022087 87.495859 
L 454.234272 100.555475 
L 456.886696 83.163788 
L 459.209814 86.130377 
L 459.931826 84.607812 
L 462.976956 86.051835 
" style="fill:#0000ff;fill-opacity:0.5;"/>
    <path clip-path="url(#pd344532cd2)" d="M 451.138687 77.702989 
L 450.219281 79.115151 
L 453.963009 79.5418 
L 440.532471 90.905196 
L 445.490041 74.025367 
L 447.394959 77.27634 
L 448.314364 75.864178 
L 451.138687 77.702989 
" style="fill:#0000ff;fill-opacity:0.5;"/>
    <path clip-path="url(#pd344532cd2)" d="M 437.341301 67.706571 
L 436.664623 69.249819 
L 440.427796 69.059927 
L 429.031275 82.462368 
L 431.168311 64.99986 
L 433.578128 67.896463 
L 434.254806 66.353215 
L 437.341301 67.706571 
" style="fill:#0000ff;fill-opacity:0.5;"/>
    <path clip-path="url(#pd344532cd2)" d="M 425.272812 59.108069 
L 424.452616 60.580068 
L 428.216812 60.748461 
L 415.598848 73.007871 
L 419.384813 55.827283 
L 421.508616 58.939676 
L 422.328812 57.467676 
L 425.272812 59.108069 
" style="fill:#0000ff;fill-opacity:0.5;"/>
    <path clip-path="url(#pd344532cd2)" d="M 411.036422 48.972469 
L 410.54873 50.585436 
L 414.262356 49.947853 
L 404.546537 64.614447 
L 404.584554 47.021702 
L 407.322796 49.610052 
L 407.810488 47.997085 
L 411.036422 48.972469 
" style="fill:#0000ff;fill-opacity:0.5;"/>
    <path clip-path="url(#pd344532cd2)" d="M 397.591583 39.527003 
L 397.257631 41.178663 
L 400.894903 40.194907 
L 392.600403 55.709655 
L 390.984941 38.191195 
L 393.95431 40.51076 
L 394.288262 38.859099 
L 397.591583 39.527003 
" style="fill:#0000ff;fill-opacity:0.5;"/>
    <path clip-path="url(#pd344532cd2)" d="M 384.856376 30.420235 
L 384.526669 32.072748 
L 388.161402 31.079649 
L 379.906794 46.615659 
L 378.246324 29.101408 
L 381.221643 31.413335 
L 381.55135 29.760822 
L 384.856376 30.420235 
" style="fill:#0000ff;fill-opacity:0.5;"/>
    <path clip-path="url(#pd344532cd2)" d="M 511.345293 110.791615 
L 510.630515 112.31759 
L 514.397242 112.22117 
L 502.671541 125.336584 
L 505.241394 107.932504 
L 507.578566 110.888034 
L 508.293344 109.362059 
L 511.345293 110.791615 
" style="fill:#0000ff;fill-opacity:0.5;"/>
    <path clip-path="url(#pd344532cd2)" d="M 499.155877 102.113579 
L 498.323895 103.57895 
L 502.086619 103.777543 
L 489.370686 115.935305 
L 493.294394 98.785651 
L 495.393153 101.914986 
L 496.225135 100.449615 
L 499.155877 102.113579 
" style="fill:#0000ff;fill-opacity:0.5;"/>
    <path clip-path="url(#pd344532cd2)" d="M 485.856033 92.551541 
L 485.15439 94.083599 
L 488.92015 93.954826 
L 477.30755 107.170485 
L 479.727798 89.744971 
L 482.090273 92.680315 
L 482.791915 91.148256 
L 485.856033 92.551541 
" style="fill:#0000ff;fill-opacity:0.5;"/>
    <path clip-path="url(#pd344532cd2)" d="M 471.652169 82.587877 
L 471.270163 84.22909 
L 474.934594 83.351889 
L 466.190899 98.617993 
L 465.08732 81.059854 
L 467.987739 83.465078 
L 468.369745 81.823866 
L 471.652169 82.587877 
" style="fill:#0000ff;fill-opacity:0.5;"/>
    <path clip-path="url(#pd344532cd2)" d="M 459.73203 73.901522 
L 459.181356 75.494087 
L 462.91716 75.00287 
L 452.632723 89.276499 
L 453.361769 71.698825 
L 455.996226 74.392738 
L 456.5469 72.800173 
L 459.73203 73.901522 
" style="fill:#0000ff;fill-opacity:0.5;"/>
    <path clip-path="url(#pd344532cd2)" d="M 447.519954 65.121944 
L 446.860339 66.672561 
L 450.621188 66.441174 
L 439.373184 79.9685 
L 441.317485 62.483482 
L 443.759104 65.35333 
L 444.41872 63.802713 
L 447.519954 65.121944 
" style="fill:#0000ff;fill-opacity:0.5;"/>
    <path clip-path="url(#pd344532cd2)" d="M 434.083488 55.580941 
L 433.579677 57.188946 
L 437.299498 56.588564 
L 427.43737 71.157179 
L 427.651468 53.565696 
L 430.363667 56.181323 
L 430.867478 54.573318 
L 434.083488 55.580941 
" style="fill:#0000ff;fill-opacity:0.5;"/>
    <path clip-path="url(#pd344532cd2)" d="M 422.440111 47.177656 
L 421.70352 48.693222 
L 425.471243 48.650837 
L 413.55864 61.596725 
L 416.377847 44.231294 
L 418.672388 47.220041 
L 419.408979 45.704475 
L 422.440111 47.177656 
" style="fill:#0000ff;fill-opacity:0.5;"/>
    <path clip-path="url(#pd344532cd2)" d="M 408.68545 37.40183 
L 408.174886 39.007704 
L 411.897198 38.422957 
L 401.973941 52.950005 
L 402.261955 35.359576 
L 404.963139 37.986577 
L 405.473702 36.380703 
L 408.68545 37.40183 
" style="fill:#0000ff;fill-opacity:0.5;"/>
    <path clip-path="url(#pd344532cd2)" d="M 395.046397 27.862142 
L 394.730546 29.517359 
L 398.356831 28.493844 
L 390.23267 44.098463 
L 388.425528 26.598738 
L 391.420112 28.885657 
L 391.735963 27.23044 
L 395.046397 27.862142 
" style="fill:#0000ff;fill-opacity:0.5;"/>
    <path clip-path="url(#pd344532cd2)" d="M 522.227171 108.768977 
L 521.372605 110.221293 
L 525.131804 110.478108 
L 512.229198 122.437576 
L 516.417905 105.350714 
L 518.467972 108.512162 
L 519.322538 107.059845 
L 522.227171 108.768977 
" style="fill:#0000ff;fill-opacity:0.5;"/>
    <path clip-path="url(#pd344532cd2)" d="M 508.086258 98.6383 
L 507.545646 100.234309 
L 511.278276 99.719522 
L 501.084136 114.05778 
L 501.702221 96.475855 
L 504.353628 99.153086 
L 504.894239 97.557077 
L 508.086258 98.6383 
" style="fill:#0000ff;fill-opacity:0.5;"/>
    <path clip-path="url(#pd344532cd2)" d="M 496.648978 90.442774 
L 495.827963 91.914317 
L 499.592065 92.084804 
L 486.967282 104.337192 
L 490.762805 87.158713 
L 492.884876 90.272286 
L 493.705891 88.800743 
L 496.648978 90.442774 
" style="fill:#0000ff;fill-opacity:0.5;"/>
    <path clip-path="url(#pd344532cd2)" d="M 483.342456 80.882815 
L 482.652984 82.42039 
L 486.417605 82.261758 
L 474.910167 95.569088 
L 477.192158 78.12493 
L 479.577836 81.041447 
L 480.267307 79.503872 
L 483.342456 80.882815 
" style="fill:#0000ff;fill-opacity:0.5;"/>
    <path clip-path="url(#pd344532cd2)" d="M 470.162381 71.475457 
L 469.574268 73.05458 
L 473.320627 72.651684 
L 462.702122 86.678569 
L 463.845891 69.123002 
L 466.416023 71.878352 
L 467.004136 70.29923 
L 470.162381 71.475457 
" style="fill:#0000ff;fill-opacity:0.5;"/>
    <path clip-path="url(#pd344532cd2)" d="M 457.122525 62.185903 
L 456.604273 63.789312 
L 460.329343 63.222407 
L 450.336598 77.701743 
L 450.708888 60.112896 
L 453.397455 62.752809 
L 453.915706 61.1494 
L 457.122525 62.185903 
" style="fill:#0000ff;fill-opacity:0.5;"/>
    <path clip-path="url(#pd344532cd2)" d="M 443.964508 52.856398 
L 443.540378 54.487232 
L 447.226176 53.704659 
L 438.092371 68.740607 
L 437.441173 51.159877 
L 440.27871 53.638972 
L 440.70284 52.008138 
L 443.964508 52.856398 
" style="fill:#0000ff;fill-opacity:0.5;"/>
    <path clip-path="url(#pd344532cd2)" d="M 430.866706 43.583734 
L 430.522931 45.233378 
L 434.165994 44.271283 
L 425.779315 59.736398 
L 424.268131 42.208635 
L 427.223644 44.545828 
L 427.567418 42.896185 
L 430.866706 43.583734 
" style="fill:#0000ff;fill-opacity:0.5;"/>
    <path clip-path="url(#pd344532cd2)" d="M 419.18354 35.009843 
L 418.6212 36.598326 
L 422.360507 36.134524 
L 411.971653 50.332336 
L 412.829607 32.760482 
L 415.444233 35.473646 
L 416.006573 33.885162 
L 419.18354 35.009843 
" style="fill:#0000ff;fill-opacity:0.5;"/>
    <path clip-path="url(#pd344532cd2)" d="M 406.125963 25.717737 
L 405.636991 27.330316 
L 409.351122 26.695682 
L 399.623658 41.354556 
L 399.675647 23.761846 
L 402.411832 26.352371 
L 402.900805 24.739791 
L 406.125963 25.717737 
" style="fill:#0000ff;fill-opacity:0.5;"/>
   </g>
   <g id="matplotlib.axis_1">
    <g id="xtick_1">
     <g id="line2d_1">
      <defs>
       <path d="M 0 0 
L 0 3.5 
" id="m0681ad22a9" style="stroke:#000000;stroke-width:0.8;"/>
      </defs>
      <g>
       <use style="stroke:#000000;stroke-width:0.8;" x="134.70056" xlink:href="#m0681ad22a9" y="390.2"/>
      </g>
     </g>
     <g id="text_1">
      <!-- 2 -->
      <defs>
       <path d="M 10.59375 35.5 
L 73.1875 35.5 
L 73.1875 27.203125 
L 10.59375 27.203125 
z
" id="DejaVuSans-8722"/>
       <path d="M 19.1875 8.296875 
L 53.609375 8.296875 
L 53.609375 0 
L 7.328125 0 
L 7.328125 8.296875 
Q 12.9375 14.109375 22.625 23.890625 
Q 32.328125 33.6875 34.8125 36.53125 
Q 39.546875 41.84375 41.421875 45.53125 
Q 43.3125 49.21875 43.3125 52.78125 
Q 43.3125 58.59375 39.234375 62.25 
Q 35.15625 65.921875 28.609375 65.921875 
Q 23.96875 65.921875 18.8125 64.3125 
Q 13.671875 62.703125 7.8125 59.421875 
L 7.8125 69.390625 
Q 13.765625 71.78125 18.9375 73 
Q 24.125 74.21875 28.421875 74.21875 
Q 39.75 74.21875 46.484375 68.546875 
Q 53.21875 62.890625 53.21875 53.421875 
Q 53.21875 48.921875 51.53125 44.890625 
Q 49.859375 40.875 45.40625 35.40625 
Q 44.1875 33.984375 37.640625 27.21875 
Q 31.109375 20.453125 19.1875 8.296875 
z
" id="DejaVuSans-50"/>
      </defs>
      <g transform="translate(127.329466 404.798437)scale(0.1 -0.1)">
       <use xlink:href="#DejaVuSans-8722"/>
       <use x="83.789062" xlink:href="#DejaVuSans-50"/>
      </g>
     </g>
    </g>
    <g id="xtick_2">
     <g id="line2d_2">
      <g>
       <use style="stroke:#000000;stroke-width:0.8;" x="225.096508" xlink:href="#m0681ad22a9" y="390.2"/>
      </g>
     </g>
     <g id="text_2">
      <!-- 0 -->
      <defs>
       <path d="M 31.78125 66.40625 
Q 24.171875 66.40625 20.328125 58.90625 
Q 16.5 51.421875 16.5 36.375 
Q 16.5 21.390625 20.328125 13.890625 
Q 24.171875 6.390625 31.78125 6.390625 
Q 39.453125 6.390625 43.28125 13.890625 
Q 47.125 21.390625 47.125 36.375 
Q 47.125 51.421875 43.28125 58.90625 
Q 39.453125 66.40625 31.78125 66.40625 
z
M 31.78125 74.21875 
Q 44.046875 74.21875 50.515625 64.515625 
Q 56.984375 54.828125 56.984375 36.375 
Q 56.984375 17.96875 50.515625 8.265625 
Q 44.046875 -1.421875 31.78125 -1.421875 
Q 19.53125 -1.421875 13.0625 8.265625 
Q 6.59375 17.96875 6.59375 36.375 
Q 6.59375 54.828125 13.0625 64.515625 
Q 19.53125 74.21875 31.78125 74.21875 
z
" id="DejaVuSans-48"/>
      </defs>
      <g transform="translate(221.915258 404.798437)scale(0.1 -0.1)">
       <use xlink:href="#DejaVuSans-48"/>
      </g>
     </g>
    </g>
    <g id="xtick_3">
     <g id="line2d_3">
      <g>
       <use style="stroke:#000000;stroke-width:0.8;" x="315.492455" xlink:href="#m0681ad22a9" y="390.2"/>
      </g>
     </g>
     <g id="text_3">
      <!-- 2 -->
      <g transform="translate(312.311205 404.798437)scale(0.1 -0.1)">
       <use xlink:href="#DejaVuSans-50"/>
      </g>
     </g>
    </g>
    <g id="xtick_4">
     <g id="line2d_4">
      <g>
       <use style="stroke:#000000;stroke-width:0.8;" x="405.888403" xlink:href="#m0681ad22a9" y="390.2"/>
      </g>
     </g>
     <g id="text_4">
      <!-- 4 -->
      <defs>
       <path d="M 37.796875 64.3125 
L 12.890625 25.390625 
L 37.796875 25.390625 
z
M 35.203125 72.90625 
L 47.609375 72.90625 
L 47.609375 25.390625 
L 58.015625 25.390625 
L 58.015625 17.1875 
L 47.609375 17.1875 
L 47.609375 0 
L 37.796875 0 
L 37.796875 17.1875 
L 4.890625 17.1875 
L 4.890625 26.703125 
z
" id="DejaVuSans-52"/>
      </defs>
      <g transform="translate(402.707153 404.798437)scale(0.1 -0.1)">
       <use xlink:href="#DejaVuSans-52"/>
      </g>
     </g>
    </g>
    <g id="xtick_5">
     <g id="line2d_5">
      <g>
       <use style="stroke:#000000;stroke-width:0.8;" x="496.284351" xlink:href="#m0681ad22a9" y="390.2"/>
      </g>
     </g>
     <g id="text_5">
      <!-- 6 -->
      <defs>
       <path d="M 33.015625 40.375 
Q 26.375 40.375 22.484375 35.828125 
Q 18.609375 31.296875 18.609375 23.390625 
Q 18.609375 15.53125 22.484375 10.953125 
Q 26.375 6.390625 33.015625 6.390625 
Q 39.65625 6.390625 43.53125 10.953125 
Q 47.40625 15.53125 47.40625 23.390625 
Q 47.40625 31.296875 43.53125 35.828125 
Q 39.65625 40.375 33.015625 40.375 
z
M 52.59375 71.296875 
L 52.59375 62.3125 
Q 48.875 64.0625 45.09375 64.984375 
Q 41.3125 65.921875 37.59375 65.921875 
Q 27.828125 65.921875 22.671875 59.328125 
Q 17.53125 52.734375 16.796875 39.40625 
Q 19.671875 43.65625 24.015625 45.921875 
Q 28.375 48.1875 33.59375 48.1875 
Q 44.578125 48.1875 50.953125 41.515625 
Q 57.328125 34.859375 57.328125 23.390625 
Q 57.328125 12.15625 50.6875 5.359375 
Q 44.046875 -1.421875 33.015625 -1.421875 
Q 20.359375 -1.421875 13.671875 8.265625 
Q 6.984375 17.96875 6.984375 36.375 
Q 6.984375 53.65625 15.1875 63.9375 
Q 23.390625 74.21875 37.203125 74.21875 
Q 40.921875 74.21875 44.703125 73.484375 
Q 48.484375 72.75 52.59375 71.296875 
z
" id="DejaVuSans-54"/>
      </defs>
      <g transform="translate(493.103101 404.798437)scale(0.1 -0.1)">
       <use xlink:href="#DejaVuSans-54"/>
      </g>
     </g>
    </g>
    <g id="text_6">
     <!-- x -->
     <defs>
      <path d="M 54.890625 54.6875 
L 35.109375 28.078125 
L 55.90625 0 
L 45.3125 0 
L 29.390625 21.484375 
L 13.484375 0 
L 2.875 0 
L 24.125 28.609375 
L 4.6875 54.6875 
L 15.28125 54.6875 
L 29.78125 35.203125 
L 44.28125 54.6875 
z
" id="DejaVuSans-120"/>
     </defs>
     <g transform="translate(305.978125 418.476562)scale(0.1 -0.1)">
      <use xlink:href="#DejaVuSans-120"/>
     </g>
    </g>
   </g>
   <g id="matplotlib.axis_2">
    <g id="ytick_1">
     <g id="line2d_6">
      <defs>
       <path d="M 0 0 
L -3.5 0 
" id="m9bcbc83035" style="stroke:#000000;stroke-width:0.8;"/>
      </defs>
      <g>
       <use style="stroke:#000000;stroke-width:0.8;" x="56.175" xlink:href="#m9bcbc83035" y="366.700308"/>
      </g>
     </g>
     <g id="text_7">
      <!-- 2.5 -->
      <defs>
       <path d="M 10.6875 12.40625 
L 21 12.40625 
L 21 0 
L 10.6875 0 
z
" id="DejaVuSans-46"/>
       <path d="M 10.796875 72.90625 
L 49.515625 72.90625 
L 49.515625 64.59375 
L 19.828125 64.59375 
L 19.828125 46.734375 
Q 21.96875 47.46875 24.109375 47.828125 
Q 26.265625 48.1875 28.421875 48.1875 
Q 40.625 48.1875 47.75 41.5 
Q 54.890625 34.8125 54.890625 23.390625 
Q 54.890625 11.625 47.5625 5.09375 
Q 40.234375 -1.421875 26.90625 -1.421875 
Q 22.3125 -1.421875 17.546875 -0.640625 
Q 12.796875 0.140625 7.71875 1.703125 
L 7.71875 11.625 
Q 12.109375 9.234375 16.796875 8.0625 
Q 21.484375 6.890625 26.703125 6.890625 
Q 35.15625 6.890625 40.078125 11.328125 
Q 45.015625 15.765625 45.015625 23.390625 
Q 45.015625 31 40.078125 35.4375 
Q 35.15625 39.890625 26.703125 39.890625 
Q 22.75 39.890625 18.8125 39.015625 
Q 14.890625 38.140625 10.796875 36.28125 
z
" id="DejaVuSans-53"/>
      </defs>
      <g transform="translate(24.892188 370.499527)scale(0.1 -0.1)">
       <use xlink:href="#DejaVuSans-8722"/>
       <use x="83.789062" xlink:href="#DejaVuSans-50"/>
       <use x="147.412109" xlink:href="#DejaVuSans-46"/>
       <use x="179.199219" xlink:href="#DejaVuSans-53"/>
      </g>
     </g>
    </g>
    <g id="ytick_2">
     <g id="line2d_7">
      <g>
       <use style="stroke:#000000;stroke-width:0.8;" x="56.175" xlink:href="#m9bcbc83035" y="319.221159"/>
      </g>
     </g>
     <g id="text_8">
      <!-- 0.0 -->
      <g transform="translate(33.271875 323.020377)scale(0.1 -0.1)">
       <use xlink:href="#DejaVuSans-48"/>
       <use x="63.623047" xlink:href="#DejaVuSans-46"/>
       <use x="95.410156" xlink:href="#DejaVuSans-48"/>
      </g>
     </g>
    </g>
    <g id="ytick_3">
     <g id="line2d_8">
      <g>
       <use style="stroke:#000000;stroke-width:0.8;" x="56.175" xlink:href="#m9bcbc83035" y="271.742009"/>
      </g>
     </g>
     <g id="text_9">
      <!-- 2.5 -->
      <g transform="translate(33.271875 275.541228)scale(0.1 -0.1)">
       <use xlink:href="#DejaVuSans-50"/>
       <use x="63.623047" xlink:href="#DejaVuSans-46"/>
       <use x="95.410156" xlink:href="#DejaVuSans-53"/>
      </g>
     </g>
    </g>
    <g id="ytick_4">
     <g id="line2d_9">
      <g>
       <use style="stroke:#000000;stroke-width:0.8;" x="56.175" xlink:href="#m9bcbc83035" y="224.262859"/>
      </g>
     </g>
     <g id="text_10">
      <!-- 5.0 -->
      <g transform="translate(33.271875 228.062078)scale(0.1 -0.1)">
       <use xlink:href="#DejaVuSans-53"/>
       <use x="63.623047" xlink:href="#DejaVuSans-46"/>
       <use x="95.410156" xlink:href="#DejaVuSans-48"/>
      </g>
     </g>
    </g>
    <g id="ytick_5">
     <g id="line2d_10">
      <g>
       <use style="stroke:#000000;stroke-width:0.8;" x="56.175" xlink:href="#m9bcbc83035" y="176.783709"/>
      </g>
     </g>
     <g id="text_11">
      <!-- 7.5 -->
      <defs>
       <path d="M 8.203125 72.90625 
L 55.078125 72.90625 
L 55.078125 68.703125 
L 28.609375 0 
L 18.3125 0 
L 43.21875 64.59375 
L 8.203125 64.59375 
z
" id="DejaVuSans-55"/>
      </defs>
      <g transform="translate(33.271875 180.582928)scale(0.1 -0.1)">
       <use xlink:href="#DejaVuSans-55"/>
       <use x="63.623047" xlink:href="#DejaVuSans-46"/>
       <use x="95.410156" xlink:href="#DejaVuSans-53"/>
      </g>
     </g>
    </g>
    <g id="ytick_6">
     <g id="line2d_11">
      <g>
       <use style="stroke:#000000;stroke-width:0.8;" x="56.175" xlink:href="#m9bcbc83035" y="129.30456"/>
      </g>
     </g>
     <g id="text_12">
      <!-- 10.0 -->
      <defs>
       <path d="M 12.40625 8.296875 
L 28.515625 8.296875 
L 28.515625 63.921875 
L 10.984375 60.40625 
L 10.984375 69.390625 
L 28.421875 72.90625 
L 38.28125 72.90625 
L 38.28125 8.296875 
L 54.390625 8.296875 
L 54.390625 0 
L 12.40625 0 
z
" id="DejaVuSans-49"/>
      </defs>
      <g transform="translate(26.909375 133.103778)scale(0.1 -0.1)">
       <use xlink:href="#DejaVuSans-49"/>
       <use x="63.623047" xlink:href="#DejaVuSans-48"/>
       <use x="127.246094" xlink:href="#DejaVuSans-46"/>
       <use x="159.033203" xlink:href="#DejaVuSans-48"/>
      </g>
     </g>
    </g>
    <g id="ytick_7">
     <g id="line2d_12">
      <g>
       <use style="stroke:#000000;stroke-width:0.8;" x="56.175" xlink:href="#m9bcbc83035" y="81.82541"/>
      </g>
     </g>
     <g id="text_13">
      <!-- 12.5 -->
      <g transform="translate(26.909375 85.624629)scale(0.1 -0.1)">
       <use xlink:href="#DejaVuSans-49"/>
       <use x="63.623047" xlink:href="#DejaVuSans-50"/>
       <use x="127.246094" xlink:href="#DejaVuSans-46"/>
       <use x="159.033203" xlink:href="#DejaVuSans-53"/>
      </g>
     </g>
    </g>
    <g id="ytick_8">
     <g id="line2d_13">
      <g>
       <use style="stroke:#000000;stroke-width:0.8;" x="56.175" xlink:href="#m9bcbc83035" y="34.34626"/>
      </g>
     </g>
     <g id="text_14">
      <!-- 15.0 -->
      <g transform="translate(26.909375 38.145479)scale(0.1 -0.1)">
       <use xlink:href="#DejaVuSans-49"/>
       <use x="63.623047" xlink:href="#DejaVuSans-53"/>
       <use x="127.246094" xlink:href="#DejaVuSans-46"/>
       <use x="159.033203" xlink:href="#DejaVuSans-48"/>
      </g>
     </g>
    </g>
    <g id="text_15">
     <!-- y -->
     <defs>
      <path d="M 32.171875 -5.078125 
Q 28.375 -14.84375 24.75 -17.8125 
Q 21.140625 -20.796875 15.09375 -20.796875 
L 7.90625 -20.796875 
L 7.90625 -13.28125 
L 13.1875 -13.28125 
Q 16.890625 -13.28125 18.9375 -11.515625 
Q 21 -9.765625 23.484375 -3.21875 
L 25.09375 0.875 
L 2.984375 54.6875 
L 12.5 54.6875 
L 29.59375 11.921875 
L 46.6875 54.6875 
L 56.203125 54.6875 
z
" id="DejaVuSans-121"/>
     </defs>
     <g transform="translate(18.8125 205.209375)rotate(-90)scale(0.1 -0.1)">
      <use xlink:href="#DejaVuSans-121"/>
     </g>
    </g>
   </g>
   <g id="patch_3">
    <path d="M 56.175 390.2 
L 56.175 14.3 
" style="fill:none;stroke:#000000;stroke-linecap:square;stroke-linejoin:miter;stroke-width:0.8;"/>
   </g>
   <g id="patch_4">
    <path d="M 561.7 390.2 
L 561.7 14.3 
" style="fill:none;stroke:#000000;stroke-linecap:square;stroke-linejoin:miter;stroke-width:0.8;"/>
   </g>
   <g id="patch_5">
    <path d="M 56.175 390.2 
L 561.7 390.2 
" style="fill:none;stroke:#000000;stroke-linecap:square;stroke-linejoin:miter;stroke-width:0.8;"/>
   </g>
   <g id="patch_6">
    <path d="M 56.175 14.3 
L 561.7 14.3 
" style="fill:none;stroke:#000000;stroke-linecap:square;stroke-linejoin:miter;stroke-width:0.8;"/>
   </g>
   <g id="legend_1">
    <g id="patch_7">
     <path d="M 479.515625 51.65625 
L 554.7 51.65625 
Q 556.7 51.65625 556.7 49.65625 
L 556.7 21.3 
Q 556.7 19.3 554.7 19.3 
L 479.515625 19.3 
Q 477.515625 19.3 477.515625 21.3 
L 477.515625 49.65625 
Q 477.515625 51.65625 479.515625 51.65625 
z
" style="fill:#ffffff;opacity:0.8;stroke:#cccccc;stroke-linejoin:miter;"/>
    </g>
    <g id="patch_8">
     <path d="M 481.515625 30.898438 
L 501.515625 30.898438 
L 501.515625 23.898438 
L 481.515625 23.898438 
z
" style="fill:#ff0000;opacity:0.5;"/>
    </g>
    <g id="text_16">
     <!-- Republic -->
     <defs>
      <path d="M 44.390625 34.1875 
Q 47.5625 33.109375 50.5625 29.59375 
Q 53.5625 26.078125 56.59375 19.921875 
L 66.609375 0 
L 56 0 
L 46.6875 18.703125 
Q 43.0625 26.03125 39.671875 28.421875 
Q 36.28125 30.8125 30.421875 30.8125 
L 19.671875 30.8125 
L 19.671875 0 
L 9.8125 0 
L 9.8125 72.90625 
L 32.078125 72.90625 
Q 44.578125 72.90625 50.734375 67.671875 
Q 56.890625 62.453125 56.890625 51.90625 
Q 56.890625 45.015625 53.6875 40.46875 
Q 50.484375 35.9375 44.390625 34.1875 
z
M 19.671875 64.796875 
L 19.671875 38.921875 
L 32.078125 38.921875 
Q 39.203125 38.921875 42.84375 42.21875 
Q 46.484375 45.515625 46.484375 51.90625 
Q 46.484375 58.296875 42.84375 61.546875 
Q 39.203125 64.796875 32.078125 64.796875 
z
" id="DejaVuSans-82"/>
      <path d="M 56.203125 29.59375 
L 56.203125 25.203125 
L 14.890625 25.203125 
Q 15.484375 15.921875 20.484375 11.0625 
Q 25.484375 6.203125 34.421875 6.203125 
Q 39.59375 6.203125 44.453125 7.46875 
Q 49.3125 8.734375 54.109375 11.28125 
L 54.109375 2.78125 
Q 49.265625 0.734375 44.1875 -0.34375 
Q 39.109375 -1.421875 33.890625 -1.421875 
Q 20.796875 -1.421875 13.15625 6.1875 
Q 5.515625 13.8125 5.515625 26.8125 
Q 5.515625 40.234375 12.765625 48.109375 
Q 20.015625 56 32.328125 56 
Q 43.359375 56 49.78125 48.890625 
Q 56.203125 41.796875 56.203125 29.59375 
z
M 47.21875 32.234375 
Q 47.125 39.59375 43.09375 43.984375 
Q 39.0625 48.390625 32.421875 48.390625 
Q 24.90625 48.390625 20.390625 44.140625 
Q 15.875 39.890625 15.1875 32.171875 
z
" id="DejaVuSans-101"/>
      <path d="M 18.109375 8.203125 
L 18.109375 -20.796875 
L 9.078125 -20.796875 
L 9.078125 54.6875 
L 18.109375 54.6875 
L 18.109375 46.390625 
Q 20.953125 51.265625 25.265625 53.625 
Q 29.59375 56 35.59375 56 
Q 45.5625 56 51.78125 48.09375 
Q 58.015625 40.1875 58.015625 27.296875 
Q 58.015625 14.40625 51.78125 6.484375 
Q 45.5625 -1.421875 35.59375 -1.421875 
Q 29.59375 -1.421875 25.265625 0.953125 
Q 20.953125 3.328125 18.109375 8.203125 
z
M 48.6875 27.296875 
Q 48.6875 37.203125 44.609375 42.84375 
Q 40.53125 48.484375 33.40625 48.484375 
Q 26.265625 48.484375 22.1875 42.84375 
Q 18.109375 37.203125 18.109375 27.296875 
Q 18.109375 17.390625 22.1875 11.75 
Q 26.265625 6.109375 33.40625 6.109375 
Q 40.53125 6.109375 44.609375 11.75 
Q 48.6875 17.390625 48.6875 27.296875 
z
" id="DejaVuSans-112"/>
      <path d="M 8.5 21.578125 
L 8.5 54.6875 
L 17.484375 54.6875 
L 17.484375 21.921875 
Q 17.484375 14.15625 20.5 10.265625 
Q 23.53125 6.390625 29.59375 6.390625 
Q 36.859375 6.390625 41.078125 11.03125 
Q 45.3125 15.671875 45.3125 23.6875 
L 45.3125 54.6875 
L 54.296875 54.6875 
L 54.296875 0 
L 45.3125 0 
L 45.3125 8.40625 
Q 42.046875 3.421875 37.71875 1 
Q 33.40625 -1.421875 27.6875 -1.421875 
Q 18.265625 -1.421875 13.375 4.4375 
Q 8.5 10.296875 8.5 21.578125 
z
M 31.109375 56 
z
" id="DejaVuSans-117"/>
      <path d="M 48.6875 27.296875 
Q 48.6875 37.203125 44.609375 42.84375 
Q 40.53125 48.484375 33.40625 48.484375 
Q 26.265625 48.484375 22.1875 42.84375 
Q 18.109375 37.203125 18.109375 27.296875 
Q 18.109375 17.390625 22.1875 11.75 
Q 26.265625 6.109375 33.40625 6.109375 
Q 40.53125 6.109375 44.609375 11.75 
Q 48.6875 17.390625 48.6875 27.296875 
z
M 18.109375 46.390625 
Q 20.953125 51.265625 25.265625 53.625 
Q 29.59375 56 35.59375 56 
Q 45.5625 56 51.78125 48.09375 
Q 58.015625 40.1875 58.015625 27.296875 
Q 58.015625 14.40625 51.78125 6.484375 
Q 45.5625 -1.421875 35.59375 -1.421875 
Q 29.59375 -1.421875 25.265625 0.953125 
Q 20.953125 3.328125 18.109375 8.203125 
L 18.109375 0 
L 9.078125 0 
L 9.078125 75.984375 
L 18.109375 75.984375 
z
" id="DejaVuSans-98"/>
      <path d="M 9.421875 75.984375 
L 18.40625 75.984375 
L 18.40625 0 
L 9.421875 0 
z
" id="DejaVuSans-108"/>
      <path d="M 9.421875 54.6875 
L 18.40625 54.6875 
L 18.40625 0 
L 9.421875 0 
z
M 9.421875 75.984375 
L 18.40625 75.984375 
L 18.40625 64.59375 
L 9.421875 64.59375 
z
" id="DejaVuSans-105"/>
      <path d="M 48.78125 52.59375 
L 48.78125 44.1875 
Q 44.96875 46.296875 41.140625 47.34375 
Q 37.3125 48.390625 33.40625 48.390625 
Q 24.65625 48.390625 19.8125 42.84375 
Q 14.984375 37.3125 14.984375 27.296875 
Q 14.984375 17.28125 19.8125 11.734375 
Q 24.65625 6.203125 33.40625 6.203125 
Q 37.3125 6.203125 41.140625 7.25 
Q 44.96875 8.296875 48.78125 10.40625 
L 48.78125 2.09375 
Q 45.015625 0.34375 40.984375 -0.53125 
Q 36.96875 -1.421875 32.421875 -1.421875 
Q 20.0625 -1.421875 12.78125 6.34375 
Q 5.515625 14.109375 5.515625 27.296875 
Q 5.515625 40.671875 12.859375 48.328125 
Q 20.21875 56 33.015625 56 
Q 37.15625 56 41.109375 55.140625 
Q 45.0625 54.296875 48.78125 52.59375 
z
" id="DejaVuSans-99"/>
     </defs>
     <g transform="translate(509.515625 30.898438)scale(0.1 -0.1)">
      <use xlink:href="#DejaVuSans-82"/>
      <use x="69.419922" xlink:href="#DejaVuSans-101"/>
      <use x="130.943359" xlink:href="#DejaVuSans-112"/>
      <use x="194.419922" xlink:href="#DejaVuSans-117"/>
      <use x="257.798828" xlink:href="#DejaVuSans-98"/>
      <use x="321.275391" xlink:href="#DejaVuSans-108"/>
      <use x="349.058594" xlink:href="#DejaVuSans-105"/>
      <use x="376.841797" xlink:href="#DejaVuSans-99"/>
     </g>
    </g>
    <g id="patch_9">
     <path d="M 481.515625 45.576563 
L 501.515625 45.576563 
L 501.515625 38.576563 
L 481.515625 38.576563 
z
" style="fill:#0000ff;opacity:0.5;"/>
    </g>
    <g id="text_17">
     <!-- CIS -->
     <defs>
      <path d="M 64.40625 67.28125 
L 64.40625 56.890625 
Q 59.421875 61.53125 53.78125 63.8125 
Q 48.140625 66.109375 41.796875 66.109375 
Q 29.296875 66.109375 22.65625 58.46875 
Q 16.015625 50.828125 16.015625 36.375 
Q 16.015625 21.96875 22.65625 14.328125 
Q 29.296875 6.6875 41.796875 6.6875 
Q 48.140625 6.6875 53.78125 8.984375 
Q 59.421875 11.28125 64.40625 15.921875 
L 64.40625 5.609375 
Q 59.234375 2.09375 53.4375 0.328125 
Q 47.65625 -1.421875 41.21875 -1.421875 
Q 24.65625 -1.421875 15.125 8.703125 
Q 5.609375 18.84375 5.609375 36.375 
Q 5.609375 53.953125 15.125 64.078125 
Q 24.65625 74.21875 41.21875 74.21875 
Q 47.75 74.21875 53.53125 72.484375 
Q 59.328125 70.75 64.40625 67.28125 
z
" id="DejaVuSans-67"/>
      <path d="M 9.8125 72.90625 
L 19.671875 72.90625 
L 19.671875 0 
L 9.8125 0 
z
" id="DejaVuSans-73"/>
      <path d="M 53.515625 70.515625 
L 53.515625 60.890625 
Q 47.90625 63.578125 42.921875 64.890625 
Q 37.9375 66.21875 33.296875 66.21875 
Q 25.25 66.21875 20.875 63.09375 
Q 16.5 59.96875 16.5 54.203125 
Q 16.5 49.359375 19.40625 46.890625 
Q 22.3125 44.4375 30.421875 42.921875 
L 36.375 41.703125 
Q 47.40625 39.59375 52.65625 34.296875 
Q 57.90625 29 57.90625 20.125 
Q 57.90625 9.515625 50.796875 4.046875 
Q 43.703125 -1.421875 29.984375 -1.421875 
Q 24.8125 -1.421875 18.96875 -0.25 
Q 13.140625 0.921875 6.890625 3.21875 
L 6.890625 13.375 
Q 12.890625 10.015625 18.65625 8.296875 
Q 24.421875 6.59375 29.984375 6.59375 
Q 38.421875 6.59375 43.015625 9.90625 
Q 47.609375 13.234375 47.609375 19.390625 
Q 47.609375 24.75 44.3125 27.78125 
Q 41.015625 30.8125 33.5 32.328125 
L 27.484375 33.5 
Q 16.453125 35.6875 11.515625 40.375 
Q 6.59375 45.0625 6.59375 53.421875 
Q 6.59375 63.09375 13.40625 68.65625 
Q 20.21875 74.21875 32.171875 74.21875 
Q 37.3125 74.21875 42.625 73.28125 
Q 47.953125 72.359375 53.515625 70.515625 
z
" id="DejaVuSans-83"/>
     </defs>
     <g transform="translate(509.515625 45.576563)scale(0.1 -0.1)">
      <use xlink:href="#DejaVuSans-67"/>
      <use x="69.824219" xlink:href="#DejaVuSans-73"/>
      <use x="99.316406" xlink:href="#DejaVuSans-83"/>
     </g>
    </g>
   </g>
  </g>
 </g>
 <defs>
  <clipPath id="pd344532cd2">
   <rect height="375.9" width="505.525" x="56.175" y="14.3"/>
  </clipPath>
 </defs>
</svg>
